<svg width="48" height="48" viewBox="0 0 48 48" fill="none" xmlns="http://www.w3.org/2000/svg">
<ellipse cx="23.5" cy="25" rx="22.5" ry="22" fill="#515151"/>
<path d="M36.32 35.36C35.4 35.62 34.58 35.76 33.86 35.76C31.46 35.76 29.84 34 29.02 30.46H28.92C26.94 34.28 24.16 36.18 20.66 36.18C18.04 36.18 15.94 35.2 14.36 33.22C12.78 31.24 12 28.76 12 25.76C12 22.26 12.9 19.46 14.68 17.28C16.46 15.1 18.88 14 21.94 14C23.58 14 25.06 14.46 26.34 15.36C27.62 16.28 28.6 17.56 29.28 19.22H29.36L30.78 14.42H35.9L31.62 25.06C32.1 27.54 32.6 29.24 33.16 30.14C33.64 31.04 34.32 31.5 35.16 31.5C35.64 31.5 36.02 31.42 36.36 31.28L36.32 35.36ZM27.8 24.88C27.38 22.62 26.7 20.86 25.78 19.66C24.88 18.44 23.78 17.84 22.52 17.84C20.88 17.84 19.56 18.58 18.58 20.04C17.6 21.52 17.16 23.34 17.16 25.48C17.16 27.44 17.54 29.06 18.4 30.38C19.24 31.7 20.38 32.34 21.8 32.34C23 32.34 24.1 31.76 25.08 30.66C26.08 29.52 26.9 27.86 27.56 25.68L27.8 24.88Z" fill="white"/>
<ellipse cx="7" cy="25.0426" rx="2" ry="2.04255" fill="white"/>
<ellipse cx="41" cy="25.0426" rx="2" ry="2.04255" fill="white"/>
</svg>
