<svg width="25" height="25" viewBox="0 0 25 25" fill="none" xmlns="http://www.w3.org/2000/svg">
<g clip-path="url(#clip0)">
<path fill-rule="evenodd" clip-rule="evenodd" d="M1.71796 8.3532C-0.572319 10.6436 -0.572319 14.3569 1.71796 16.6473L8.3532 23.2825C10.6436 25.5728 14.3569 25.5728 16.6473 23.2825L23.2825 16.6473C25.5728 14.3569 25.5728 10.6436 23.2825 8.3532L16.6473 1.71796C14.3569 -0.572319 10.6436 -0.572319 8.3532 1.71796L1.71796 8.3532V8.3532ZM15.4031 15.4031C17.0064 13.7999 17.0064 11.2005 15.4031 9.59734C13.7999 7.99408 11.2005 7.99408 9.59734 9.59734C7.99408 11.2005 7.99408 13.7999 9.59734 15.4031C11.2005 17.0064 13.7999 17.0064 15.4031 15.4031Z" fill="white"/>
</g>
<defs>
<clipPath id="clip0">
<rect width="25" height="25" fill="white"/>
</clipPath>
</defs>
</svg>
