<svg width="562" height="199" viewBox="0 0 562 199" fill="none" xmlns="http://www.w3.org/2000/svg">
<rect x="14" y="31" width="548" height="168" fill="#030303" fill-opacity="0.5"/>
<path d="M177.185 82.7584H139.012C139.561 87.1056 141.251 90.5461 144.082 93.0796C146.913 95.5845 150.379 96.8369 154.481 96.8369C157.485 96.8369 160.272 96.218 162.843 94.9799C165.414 93.7419 167.566 91.8418 169.299 89.2793L177.185 92.8206C174.701 96.6786 171.437 99.6008 167.393 101.587C163.377 103.545 159.001 104.524 154.264 104.524C149.354 104.524 144.992 103.502 141.179 101.458C137.366 99.4136 134.391 96.5633 132.253 92.907C130.144 89.2506 129.09 85.1335 129.09 80.5559C129.09 76.0069 130.13 71.9042 132.21 68.248C134.318 64.5915 137.193 61.7412 140.832 59.697C144.472 57.6241 148.487 56.5877 152.878 56.5877C157.673 56.5877 161.847 57.653 165.4 59.7835C168.981 61.8851 171.798 64.9083 173.849 68.8525C175.899 72.768 177.012 77.4032 177.185 82.7584ZM153.051 64.0157C149.671 64.0157 146.71 65.1529 144.169 67.4274C141.627 69.673 139.995 72.6529 139.272 76.3668H167.783C166.945 72.6529 165.168 69.673 162.453 67.4274C159.738 65.1529 156.604 64.0157 153.051 64.0157ZM200.54 84.9608V95.239H210.462V103.185H182.514V95.239H191.657V65.7862H182.514V57.797H198.763V68.0751C200.582 64.0157 202.836 61.1941 205.522 59.6108C208.238 57.9985 212.107 57.1924 217.134 57.1924H219.171V66.2182H217.22C212.368 66.2182 208.757 66.8514 206.389 68.1184C204.019 69.385 202.446 71.2997 201.666 73.862C200.915 76.4245 200.54 80.124 200.54 84.9608ZM262.933 73.8188V95.239H270.559V103.185H255.046V97.6143C250.713 101.846 245.89 103.963 240.575 103.963C237.772 103.963 235.203 103.315 232.862 102.019C230.551 100.724 228.688 98.9962 227.274 96.8369C225.887 94.6488 225.192 92.2304 225.192 89.5817C225.192 86.7314 225.959 84.1978 227.49 81.981C229.048 79.7352 231.143 78.0078 233.772 76.7987C236.401 75.5894 239.044 74.9848 241.701 74.9848C246.149 74.9848 250.295 76.2804 254.137 78.8716V73.9915C254.137 70.4504 253.384 67.9168 251.883 66.3908C250.382 64.865 247.912 64.1021 244.474 64.1021C242.048 64.1021 240.011 64.5482 238.366 65.4408C236.746 66.3046 235.404 67.6288 234.336 69.4139L225.756 67.2977C227.691 63.699 230.305 61.0215 233.598 59.2653C236.892 57.4802 240.806 56.5877 245.341 56.5877C251.436 56.5877 255.884 57.9696 258.686 60.7335C261.517 63.4974 262.933 67.8592 262.933 73.8188ZM241.788 97.096C246.178 97.096 250.295 95.2677 254.137 91.6115V86.2995C250.236 83.2765 246.337 81.765 242.438 81.765C240.068 81.765 238.018 82.5135 236.284 84.0108C234.581 85.479 233.729 87.3359 233.729 89.5817C233.729 91.741 234.48 93.5403 235.981 94.9799C237.484 96.3906 239.419 97.096 241.788 97.096ZM297.899 95.239V103.185H273.938V95.239H281.996V45.964H273.938V38.1042H290.966V95.239H297.899ZM342.916 73.8188V95.239H350.542V103.185H335.032V97.6143C330.698 101.846 325.873 103.963 320.558 103.963C317.757 103.963 315.186 103.315 312.847 102.019C310.536 100.724 308.673 98.9962 307.257 96.8369C305.87 94.6488 305.177 92.2304 305.177 89.5817C305.177 86.7314 305.942 84.1978 307.473 81.981C309.033 79.7352 311.128 78.0078 313.757 76.7987C316.386 75.5894 319.027 74.9848 321.686 74.9848C326.134 74.9848 330.279 76.2804 334.12 78.8716V73.9915C334.12 70.4504 333.37 67.9168 331.868 66.3908C330.365 64.865 327.896 64.1021 324.459 64.1021C322.032 64.1021 319.996 64.5482 318.349 65.4408C316.731 66.3046 315.389 67.6288 314.319 69.4139L305.741 67.2977C307.677 63.699 310.291 61.0215 313.583 59.2653C316.876 57.4802 320.789 56.5877 325.326 56.5877C331.419 56.5877 335.869 57.9696 338.67 60.7335C341.502 63.4974 342.916 67.8592 342.916 73.8188ZM321.773 97.096C326.163 97.096 330.279 95.2677 334.12 91.6115V86.2995C330.221 83.2765 326.322 81.765 322.422 81.765C320.053 81.765 318.003 82.5135 316.269 84.0108C314.565 85.479 313.712 87.3359 313.712 89.5817C313.712 91.741 314.465 93.5403 315.966 94.9799C317.469 96.3906 319.403 97.096 321.773 97.096ZM398.983 72.6529V95.239H406.609V103.185H390.015V73.2143C390.015 70.364 389.595 68.3198 388.758 67.0818C387.95 65.8439 386.606 65.2248 384.728 65.2248C380.742 65.2248 376.265 67.1826 371.297 71.0981V95.239H379.139V103.185H354.443V95.239H362.457V65.7862H354.443V57.797H371.297V63.2816C376.871 59.222 382.114 57.1924 387.026 57.1924C391.098 57.1924 394.103 58.4448 396.038 60.9494C398.001 63.4543 398.983 67.3554 398.983 72.6529ZM467.399 95.239V103.185H450.284V96.5345C445.722 101.486 440.275 103.963 433.949 103.963C429.558 103.963 425.674 102.94 422.295 100.896C418.943 98.8234 416.329 96.0164 414.453 92.4751C412.604 88.9338 411.68 85.0183 411.68 80.7286C411.68 76.3524 412.661 72.3217 414.625 68.6366C416.618 64.9514 419.363 62.0292 422.857 59.8699C426.353 57.6818 430.137 56.5877 434.21 56.5877C437.157 56.5877 439.944 57.1778 442.571 58.3584C445.23 59.5388 447.801 61.3957 450.284 63.9293V45.964H441.488V38.1042H459.167V95.239H467.399ZM435.639 96.0164C438.412 96.0164 440.911 95.2821 443.135 93.8139C445.359 92.3456 447.108 90.3878 448.378 87.9407C449.65 85.4933 450.284 82.8735 450.284 80.0807C450.284 77.2593 449.65 74.6825 448.378 72.3505C447.108 70.0185 445.344 68.1759 443.093 66.8227C440.839 65.4695 438.297 64.7931 435.467 64.7931C432.722 64.7931 430.267 65.5272 428.1 66.9955C425.963 68.435 424.273 70.364 423.031 72.7824C421.788 75.172 421.167 77.7344 421.167 80.4695C421.167 83.406 421.803 86.0548 423.075 88.4157C424.345 90.7764 426.079 92.6334 428.274 93.9866C430.47 95.3398 432.925 96.0164 435.639 96.0164ZM488.5 84.9608V95.239H498.422V103.185H470.475V95.239H479.619V65.7862H470.475V57.797H486.723V68.0751C488.544 64.0157 490.796 61.1941 493.484 59.6108C496.198 57.9985 500.069 57.1924 505.096 57.1924H507.131V66.2182H505.183C500.33 66.2182 496.719 66.8514 494.349 68.1184C491.981 69.385 490.406 71.2997 489.628 73.862C488.875 76.4245 488.5 80.124 488.5 84.9608ZM550.893 73.8188V95.239H558.519V103.185H543.008V97.6143C538.675 101.846 533.85 103.963 528.535 103.963C525.734 103.963 523.163 103.315 520.824 102.019C518.513 100.724 516.65 98.9962 515.234 96.8369C513.847 94.6488 513.154 92.2304 513.154 89.5817C513.154 86.7314 513.919 84.1978 515.45 81.981C517.01 79.7352 519.105 78.0078 521.734 76.7987C524.363 75.5894 527.004 74.9848 529.663 74.9848C534.111 74.9848 538.256 76.2804 542.097 78.8716V73.9915C542.097 70.4504 541.347 67.9168 539.845 66.3908C538.342 64.865 535.873 64.1021 532.436 64.1021C530.009 64.1021 527.973 64.5482 526.326 65.4408C524.708 66.3046 523.366 67.6288 522.296 69.4139L513.718 67.2977C515.654 63.699 518.268 61.0215 521.56 59.2653C524.853 57.4802 528.766 56.5877 533.303 56.5877C539.396 56.5877 543.846 57.9696 546.647 60.7335C549.479 63.4974 550.893 67.8592 550.893 73.8188ZM529.75 97.096C534.14 97.096 538.256 95.2677 542.097 91.6115V86.2995C538.198 83.2765 534.299 81.765 530.399 81.765C528.03 81.765 525.98 82.5135 524.246 84.0108C522.542 85.479 521.689 87.3359 521.689 89.5817C521.689 91.741 522.442 93.5403 523.943 94.9799C525.446 96.3906 527.38 97.096 529.75 97.096Z" fill="white"/>
<path d="M213.682 150.747C213.682 154.979 212.7 158.938 210.735 162.623C208.772 166.308 206.086 169.216 202.677 171.347C199.297 173.477 195.541 174.543 191.411 174.543C185.316 174.543 179.987 172.21 175.423 167.546V185.599H184.305V193.544H158.221V185.599H166.454V135.805H158.828V127.815H175.423V135.071C177.676 132.422 180.16 130.45 182.875 129.154C185.591 127.859 188.494 127.211 191.585 127.211C195.888 127.211 199.715 128.276 203.067 130.407C206.417 132.508 209.016 135.359 210.865 138.957C212.743 142.556 213.682 146.486 213.682 150.747ZM191.282 166.38C193.764 166.38 196.003 165.66 197.998 164.221C199.991 162.782 201.549 160.824 202.677 158.348C203.803 155.872 204.367 153.252 204.367 150.488C204.367 147.695 203.745 145.133 202.503 142.801C201.261 140.44 199.556 138.569 197.39 137.187C195.225 135.776 192.783 135.071 190.067 135.071C187.237 135.071 184.695 135.819 182.442 137.316C180.189 138.785 178.441 140.742 177.199 143.19C175.957 145.637 175.336 148.329 175.336 151.265C175.336 155.987 176.824 159.687 179.799 162.364C182.803 165.042 186.63 166.38 191.282 166.38ZM240.806 166.208C244.821 166.208 249.168 164.264 253.847 160.378V135.805H245.788V127.815H262.816V165.258H270.616V173.204H253.847V167.978C248.591 171.98 243.594 173.981 238.856 173.981C234.581 173.981 231.418 172.714 229.366 170.181C227.346 167.647 226.334 163.444 226.334 157.57V135.805H219.964V127.815H235.302V159.427C235.302 161.76 235.722 163.473 236.56 164.567C237.427 165.66 238.841 166.208 240.806 166.208ZM285.954 165.862H306.839V156.491H314.637V173.204H275.511V165.862L303.892 135.243H285.261V143.924H277.635V127.815H314.637V135.805L285.954 165.862ZM330.842 165.862H351.727V156.491H359.527V173.204H320.399V165.862L348.78 135.243H330.149V143.924H322.523V127.815H359.527V135.805L330.842 165.862ZM387.993 165.258V173.204H364.032V165.258H372.09V115.983H364.032V108.123H381.06V165.258H387.993ZM442.327 152.777H404.154C404.703 157.124 406.393 160.565 409.223 163.098C412.055 165.603 415.521 166.855 419.622 166.855C422.626 166.855 425.414 166.236 427.985 164.998C430.555 163.76 432.707 161.86 434.441 159.298L442.327 162.839C439.843 166.697 436.578 169.619 432.535 171.606C428.519 173.564 424.144 174.543 419.405 174.543C414.495 174.543 410.134 173.52 406.32 171.476C402.508 169.432 399.532 166.582 397.395 162.926C395.286 159.269 394.232 155.152 394.232 150.574C394.232 146.025 395.271 141.923 397.353 138.266C399.46 134.61 402.335 131.76 405.975 129.716C409.613 127.643 413.628 126.606 418.019 126.606C422.814 126.606 426.989 127.672 430.542 129.802C434.123 131.904 436.94 134.927 438.99 138.871C441.041 142.787 442.154 147.422 442.327 152.777ZM418.193 134.034C414.813 134.034 411.852 135.171 409.31 137.446C406.768 139.692 405.135 142.671 404.414 146.385H432.925C432.087 142.671 430.311 139.692 427.595 137.446C424.879 135.171 421.746 134.034 418.193 134.034ZM476.687 129.759V127.815H484.485V142.887H476.687V140.123C474.086 136.409 470.533 134.552 466.027 134.552C463.659 134.552 461.724 135.071 460.221 136.107C458.72 137.144 457.969 138.482 457.969 140.123C457.969 141.592 458.531 142.743 459.659 143.578C460.814 144.413 463.384 145.147 467.37 145.781L473.393 146.947C482.377 148.588 486.868 152.978 486.868 160.118C486.868 164.293 485.237 167.647 481.972 170.181C478.737 172.714 474.433 173.981 469.061 173.981C466.922 173.981 464.815 173.679 462.735 173.074C460.683 172.441 458.965 171.663 457.579 170.742V173.204H449.606V157.657H457.579V159.211C458.012 161.4 459.224 163.156 461.217 164.48C463.24 165.805 465.58 166.467 468.237 166.467C471.154 166.467 473.452 165.963 475.127 164.955C476.802 163.919 477.639 162.393 477.639 160.378C477.639 158.909 476.975 157.815 475.646 157.095C474.317 156.347 471.646 155.584 467.63 154.807L462.994 153.813C458.402 152.892 455.037 151.309 452.898 149.063C450.761 146.817 449.692 143.953 449.692 140.469C449.692 137.647 450.473 135.243 452.033 133.257C453.621 131.242 455.643 129.73 458.098 128.722C460.553 127.715 463.081 127.211 465.68 127.211C470.043 127.211 473.711 128.06 476.687 129.759Z" fill="white"/>
<path d="M57.9536 27.4983C65.0764 15.2519 82.8183 15.2519 89.9411 27.4983L131.803 99.4718C138.947 111.756 130.055 127.139 115.809 127.139H32.0856C17.8399 127.139 8.94724 111.756 16.0919 99.4718L57.9536 27.4983Z" fill="#1DA282"/>
<g filter="url(#filter0_d)">
<path d="M104.609 71.5156C104.609 75.7479 103.627 79.7065 101.663 83.3917C99.699 87.0769 97.0127 89.9847 93.6041 92.1153C90.2245 94.2457 86.4693 95.3111 82.3388 95.3111C76.2438 95.3111 70.9144 92.9789 66.3504 88.3149V106.367H75.2328V114.313H49.149V106.367H57.3815V56.5733H49.7557V48.584H66.3504V55.8392C68.6036 53.1905 71.0877 51.2184 73.803 49.9229C76.5182 48.6271 79.4212 47.9795 82.512 47.9795C86.8159 47.9795 90.6432 49.0447 93.9941 51.1751C97.3447 53.2769 99.9445 56.1271 101.793 59.726C103.671 63.3248 104.609 67.2547 104.609 71.5156ZM82.2088 87.1489C84.6929 87.1489 86.9314 86.429 88.9247 84.9896C90.9178 83.5502 92.4775 81.5922 93.6041 79.1163C94.7307 76.6404 95.294 74.0205 95.294 71.2566C95.294 68.4638 94.6728 65.9015 93.4309 63.5695C92.1887 61.2087 90.4844 59.3372 88.3179 57.9553C86.1517 56.5446 83.7107 55.8392 80.9955 55.8392C78.1646 55.8392 75.6227 56.5877 73.3697 58.0848C71.1167 59.5532 69.3689 61.5109 68.127 63.9581C66.8849 66.4054 66.2639 69.0972 66.2639 72.034C66.2639 76.7554 67.7513 80.4552 70.7266 83.1326C73.7307 85.8101 77.5581 87.1489 82.2088 87.1489Z" fill="white"/>
</g>
<g filter="url(#filter1_d)">
<path d="M82.2665 75.5463C84.819 75.5463 86.8882 73.4839 86.8882 70.9398C86.8882 68.3957 84.819 66.3333 82.2665 66.3333C79.714 66.3333 77.6447 68.3957 77.6447 70.9398C77.6447 73.4839 79.714 75.5463 82.2665 75.5463Z" fill="white"/>
</g>
<g filter="url(#filter2_d)">
<path d="M508.388 156.62C512.472 156.62 515.783 147.958 515.783 137.273C515.783 126.588 512.472 117.926 508.388 117.926C504.304 117.926 500.993 126.588 500.993 137.273C500.993 147.958 504.304 156.62 508.388 156.62Z" fill="#1DA182"/>
</g>
<g filter="url(#filter3_d)">
<path d="M508.388 173.204C511.451 173.204 513.934 170.729 513.934 167.676C513.934 164.623 511.451 162.148 508.388 162.148C505.325 162.148 502.842 164.623 502.842 167.676C502.842 170.729 505.325 173.204 508.388 173.204Z" fill="#1DA182"/>
</g>
<path d="M531.999 129.324C530.943 129.324 529.983 129.09 529.119 128.622C528.255 128.142 527.577 127.482 527.085 126.642C526.593 125.802 526.347 124.866 526.347 123.834C526.347 122.79 526.593 121.854 527.085 121.026C527.577 120.186 528.255 119.532 529.119 119.064C529.983 118.584 530.943 118.344 531.999 118.344C533.055 118.344 534.015 118.584 534.879 119.064C535.743 119.532 536.421 120.186 536.913 121.026C537.405 121.854 537.651 122.79 537.651 123.834C537.651 124.866 537.405 125.802 536.913 126.642C536.421 127.482 535.743 128.142 534.879 128.622C534.015 129.09 533.055 129.324 531.999 129.324ZM531.999 128.676C532.899 128.676 533.715 128.466 534.447 128.046C535.191 127.614 535.773 127.032 536.193 126.3C536.613 125.556 536.823 124.734 536.823 123.834C536.823 122.922 536.613 122.1 536.193 121.368C535.773 120.624 535.191 120.042 534.447 119.622C533.715 119.19 532.899 118.974 531.999 118.974C531.099 118.974 530.277 119.19 529.533 119.622C528.801 120.042 528.225 120.624 527.805 121.368C527.385 122.1 527.175 122.922 527.175 123.834C527.175 124.746 527.385 125.574 527.805 126.318C528.225 127.05 528.801 127.626 529.533 128.046C530.277 128.466 531.099 128.676 531.999 128.676ZM532.053 127.182C531.441 127.182 530.883 127.044 530.379 126.768C529.875 126.48 529.473 126.084 529.173 125.58C528.885 125.064 528.741 124.476 528.741 123.816C528.741 123.108 528.897 122.502 529.209 121.998C529.533 121.494 529.947 121.116 530.451 120.864C530.955 120.612 531.489 120.486 532.053 120.486C532.509 120.486 532.917 120.564 533.277 120.72C533.637 120.876 533.913 121.104 534.105 121.404V120.648H534.753V122.646H534.123C534.051 122.166 533.835 121.788 533.475 121.512C533.127 121.236 532.677 121.098 532.125 121.098C531.693 121.098 531.279 121.2 530.883 121.404C530.487 121.608 530.163 121.914 529.911 122.322C529.659 122.73 529.533 123.228 529.533 123.816C529.533 124.344 529.647 124.818 529.875 125.238C530.103 125.658 530.409 125.988 530.793 126.228C531.177 126.456 531.597 126.57 532.053 126.57C532.521 126.57 532.959 126.48 533.367 126.3C533.775 126.108 534.135 125.832 534.447 125.472L534.807 125.922C534.495 126.318 534.093 126.63 533.601 126.858C533.109 127.074 532.593 127.182 532.053 127.182Z" fill="white"/>
<defs>
<filter id="filter0_d" x="47.149" y="46.9795" width="63.4605" height="74.3333" filterUnits="userSpaceOnUse" color-interpolation-filters="sRGB">
<feFlood flood-opacity="0" result="BackgroundImageFix"/>
<feColorMatrix in="SourceAlpha" type="matrix" values="0 0 0 0 0 0 0 0 0 0 0 0 0 0 0 0 0 0 127 0"/>
<feOffset dx="2" dy="3"/>
<feGaussianBlur stdDeviation="2"/>
<feColorMatrix type="matrix" values="0 0 0 0 0 0 0 0 0 0 0 0 0 0 0 0 0 0 0.25 0"/>
<feBlend mode="normal" in2="BackgroundImageFix" result="effect1_dropShadow"/>
<feBlend mode="normal" in="SourceGraphic" in2="effect1_dropShadow" result="shape"/>
</filter>
<filter id="filter1_d" x="76.6447" y="64.3333" width="17.2434" height="17.213" filterUnits="userSpaceOnUse" color-interpolation-filters="sRGB">
<feFlood flood-opacity="0" result="BackgroundImageFix"/>
<feColorMatrix in="SourceAlpha" type="matrix" values="0 0 0 0 0 0 0 0 0 0 0 0 0 0 0 0 0 0 127 0"/>
<feOffset dx="3" dy="2"/>
<feGaussianBlur stdDeviation="2"/>
<feColorMatrix type="matrix" values="0 0 0 0 0 0 0 0 0 0 0 0 0 0 0 0 0 0 0.25 0"/>
<feBlend mode="normal" in2="BackgroundImageFix" result="effect1_dropShadow"/>
<feBlend mode="normal" in="SourceGraphic" in2="effect1_dropShadow" result="shape"/>
</filter>
<filter id="filter2_d" x="497.993" y="114.176" width="22.7895" height="46.6944" filterUnits="userSpaceOnUse" color-interpolation-filters="sRGB">
<feFlood flood-opacity="0" result="BackgroundImageFix"/>
<feColorMatrix in="SourceAlpha" type="matrix" values="0 0 0 0 0 0 0 0 0 0 0 0 0 0 0 0 0 0 127 0"/>
<feOffset dx="1" dy="0.25"/>
<feGaussianBlur stdDeviation="2"/>
<feColorMatrix type="matrix" values="0 0 0 0 0.0757986 0 0 0 0 0.308333 0 0 0 0 0.196717 0 0 0 0.67 0"/>
<feBlend mode="normal" in2="BackgroundImageFix" result="effect1_dropShadow"/>
<feBlend mode="normal" in="SourceGraphic" in2="effect1_dropShadow" result="shape"/>
</filter>
<filter id="filter3_d" x="499.842" y="158.648" width="19.0922" height="19.0555" filterUnits="userSpaceOnUse" color-interpolation-filters="sRGB">
<feFlood flood-opacity="0" result="BackgroundImageFix"/>
<feColorMatrix in="SourceAlpha" type="matrix" values="0 0 0 0 0 0 0 0 0 0 0 0 0 0 0 0 0 0 127 0"/>
<feOffset dx="1" dy="0.5"/>
<feGaussianBlur stdDeviation="2"/>
<feColorMatrix type="matrix" values="0 0 0 0 0.0745098 0 0 0 0 0.309804 0 0 0 0 0.196078 0 0 0 0.67 0"/>
<feBlend mode="normal" in2="BackgroundImageFix" result="effect1_dropShadow"/>
<feBlend mode="normal" in="SourceGraphic" in2="effect1_dropShadow" result="shape"/>
</filter>
</defs>
</svg>
