<svg width="972" height="781" viewBox="0 0 972 781" fill="none" xmlns="http://www.w3.org/2000/svg">
<path d="M497.465 593.406L497.343 593.525L497.241 593.667C471.011 629.946 429.672 665.601 389.099 685.469C368.817 695.401 348.829 701.336 331.088 701.506C313.365 701.675 298.006 696.098 286.724 683.16L286.674 683.102L286.62 683.049C277.251 673.836 273.889 658.148 275.48 638.036C277.067 617.978 283.556 594.019 293.316 568.991C312.834 518.943 345.214 465.164 376.554 430.664L376.574 430.643L376.593 430.621C406.848 395.331 447.682 367.572 484.993 352.995C503.646 345.708 521.339 341.747 536.328 341.742C551.337 341.737 563.379 345.692 571.074 353.887C580.532 364.943 584.791 381.374 584.706 401.109C584.622 420.853 580.184 443.659 572.5 467.065C557.127 513.89 528.919 562.642 497.465 593.406Z" stroke="#0B460D" stroke-opacity="0.85" stroke-width="4"/>
<path d="M375.241 661.636L375.207 661.651L375.174 661.667C319.333 688.499 248.42 710.477 186.484 709.962C124.596 709.448 72.0064 686.516 51.9461 623.941C40.3289 565.464 71.5909 505.671 120.808 454.603C170.007 403.554 236.83 361.582 295.394 338.934L295.417 338.925L295.439 338.916C353.074 314.448 413.693 303.507 465.931 309.585C518.099 315.654 561.785 338.669 585.968 381.975C598.478 431.52 574.553 489.254 532.901 540.869C491.242 592.493 432.142 637.606 375.241 661.636Z" stroke="#940E0E" stroke-opacity="0.69" stroke-width="3"/>
<path d="M938.46 323.745L938.465 323.79L938.472 323.834C958.397 440.037 865.091 554.991 739.455 580.83C605.432 608.394 494.784 531.534 477.536 417.437C460.289 303.351 545.175 185.553 676.111 158.117L676.141 158.111L676.171 158.103C811.741 123.827 925.557 207 938.46 323.745Z" stroke="#6D580E" stroke-width="3"/>
<path d="M402.219 158.097L402.227 158.104L402.235 158.111C467.101 211.152 519.172 271.487 550.9 325.376C566.766 352.324 577.518 377.611 582.26 399.534C587.004 421.462 585.713 439.892 577.671 453.304C569.634 466.709 555.49 474.036 536.587 475.743C517.684 477.45 494.132 473.519 467.491 464.539C414.216 446.58 348.793 408.498 283.915 355.446C219.049 302.405 165.097 240.585 131.49 185.207C114.684 157.514 102.995 131.48 97.5524 108.996C92.1095 86.5136 92.9463 67.743 100.961 54.3548C110.812 39.8228 126.248 31.9551 146.033 30.1295C165.838 28.302 189.936 32.5395 216.952 42.1517C270.98 61.3746 336.475 102.019 402.219 158.097Z" stroke="#F527E1" stroke-width="2"/>
<path d="M564.719 469.96C545.136 485.188 516.803 482.294 484.967 465.134C453.192 448.007 418.247 416.821 385.757 376.182C353.283 335.563 329.733 291.238 318.123 252.977C312.318 233.844 309.518 216.29 310.043 201.508C310.567 186.768 314.389 174.895 321.727 166.875C341.874 150.143 368.379 153.652 399.008 171.082C429.63 188.509 464.019 219.664 499.542 257.394C523.642 282.989 550.451 328.217 565.915 371.161C573.647 392.634 578.503 413.431 578.813 430.849C579.123 448.264 574.897 462.046 564.719 469.96Z" stroke="#F527E1" stroke-opacity="0.62" stroke-width="2.5"/>
<path d="M559.511 478.698C537.627 487.405 513.698 480.259 491.044 461.072C468.414 441.905 447.334 410.922 431.367 372.737C415.418 334.595 408.533 295.078 410.27 262.539C412.012 229.918 422.345 204.998 440.131 194.812C462.97 185.026 485.06 192.343 506.54 211.513C528.072 230.729 548.686 261.615 568.289 298.076C581.492 322.632 590.995 363.423 591.189 400.446C591.286 418.948 589.055 436.338 583.913 450.207C578.782 464.045 570.832 474.194 559.511 478.698Z" stroke="#F527E1" stroke-opacity="0.41" stroke-width="4"/>
<g filter="url(#filter0_f)">
<ellipse cx="548.35" cy="424.672" rx="13.3998" ry="15.6295" fill="#FFFEE2"/>
</g>
<g filter="url(#filter1_f)">
<ellipse cx="547.956" cy="424.212" rx="43.7464" ry="51.9451" fill="#FCFF74" fill-opacity="0.2"/>
</g>
<g filter="url(#filter2_f)">
<ellipse cx="828.818" cy="362.907" rx="1.97056" ry="2.29845" fill="white"/>
</g>
<g filter="url(#filter3_f)">
<ellipse cx="711.909" cy="474.654" rx="8.27635" ry="9.65351" fill="white" fill-opacity="0.8"/>
</g>
<g filter="url(#filter4_f)">
<ellipse cx="202.55" cy="277.429" rx="3.36781" ry="3.9282" fill="#F527E1"/>
</g>
<g filter="url(#filter5_f)">
<ellipse cx="434.447" cy="628.723" rx="3.36781" ry="3.9282" fill="#940E0E"/>
</g>
<g filter="url(#filter6_f)">
<ellipse cx="575.895" cy="358.238" rx="4.33004" ry="5.05055" fill="#0B460D"/>
</g>
<g filter="url(#filter7_f)">
<ellipse cx="399.326" cy="171.368" rx="2.88669" ry="3.36703" fill="#F527E1" fill-opacity="0.92"/>
</g>
<g filter="url(#filter8_f)">
<ellipse cx="575.414" cy="313.905" rx="3.84893" ry="4.48937" fill="#F527E1" fill-opacity="0.62"/>
</g>
<g filter="url(#filter9_f)">
<ellipse cx="720.711" cy="151.165" rx="3.84893" ry="4.48937" fill="#6D580E" fill-opacity="0.99"/>
</g>
<path d="M177.55 242.515H181.294V220.579H177.55V218.035H190.894C194.19 218.035 196.702 218.691 198.43 220.003C200.158 221.315 201.022 223.219 201.022 225.715C201.022 228.371 200.126 230.403 198.334 231.811C196.574 233.187 194.014 233.875 190.654 233.875H187.054V231.331H190.51C192.59 231.331 194.19 230.851 195.31 229.891C196.43 228.931 196.99 227.555 196.99 225.763C196.99 224.099 196.494 222.819 195.502 221.923C194.542 221.027 193.15 220.579 191.326 220.579H185.23V242.515H188.974V245.059H177.55V242.515ZM233.333 245.587C230.229 245.587 227.829 244.867 226.133 243.427C224.437 241.987 223.589 240.131 223.589 237.859C223.589 236.227 224.053 234.819 224.981 233.635C225.909 232.419 227.221 231.523 228.917 230.947C227.349 230.275 226.213 229.427 225.509 228.403C224.805 227.347 224.453 226.083 224.453 224.611C224.453 222.499 225.253 220.803 226.853 219.523C228.453 218.211 230.597 217.555 233.285 217.555C236.005 217.555 238.165 218.195 239.765 219.475C241.365 220.755 242.165 222.467 242.165 224.611C242.165 227.747 240.645 229.875 237.605 230.995C239.365 231.475 240.693 232.307 241.589 233.491C242.517 234.675 242.981 236.115 242.981 237.811C242.981 240.115 242.117 241.987 240.389 243.427C238.693 244.867 236.341 245.587 233.333 245.587ZM235.301 230.035C236.005 229.779 236.709 229.187 237.413 228.259C238.149 227.331 238.517 226.211 238.517 224.899C238.517 223.491 238.053 222.371 237.125 221.539C236.229 220.675 234.949 220.243 233.285 220.243C231.653 220.243 230.373 220.659 229.445 221.491C228.549 222.323 228.101 223.459 228.101 224.899C228.101 226.435 228.709 227.603 229.925 228.403C231.141 229.203 232.933 229.747 235.301 230.035ZM233.333 242.851C235.093 242.851 236.501 242.387 237.557 241.459C238.613 240.531 239.141 239.283 239.141 237.715C239.141 235.987 238.501 234.723 237.221 233.923C235.941 233.091 233.909 232.451 231.125 232.003C230.581 232.131 230.021 232.467 229.445 233.011C228.869 233.523 228.389 234.195 228.005 235.027C227.621 235.827 227.429 236.707 227.429 237.667C227.429 239.235 227.957 240.499 229.013 241.459C230.069 242.387 231.509 242.851 233.333 242.851ZM259.679 245.587C256.383 245.587 253.887 244.387 252.191 241.987C250.527 239.555 249.695 236.035 249.695 231.427C249.695 227.043 250.543 223.635 252.239 221.203C253.935 218.771 256.415 217.555 259.679 217.555C262.943 217.555 265.423 218.771 267.119 221.203C268.815 223.635 269.663 227.043 269.663 231.427C269.663 236.035 268.815 239.555 267.119 241.987C265.455 244.387 262.975 245.587 259.679 245.587ZM259.679 243.043C261.759 243.043 263.343 242.051 264.431 240.067C265.551 238.083 266.111 235.203 266.111 231.427C266.111 227.747 265.551 224.947 264.431 223.027C263.343 221.075 261.759 220.099 259.679 220.099C257.599 220.099 255.999 221.075 254.879 223.027C253.791 224.947 253.247 227.747 253.247 231.427C253.247 235.203 253.791 238.083 254.879 240.067C255.999 242.051 257.599 243.043 259.679 243.043ZM277.541 232.483H289.013V235.171H277.541V232.483ZM296.246 242.515H300.278V221.155L296.198 221.827L296.102 219.283L303.734 218.035V242.515H307.526V245.059H296.246V242.515Z" fill="white"/>
<path d="M314.968 617.378H318.712V595.442H314.968V592.898H329.176C332.056 592.898 334.296 593.506 335.896 594.722C337.528 595.906 338.344 597.65 338.344 599.954C338.344 604.05 336.024 606.45 331.384 607.154L337.576 617.378H341.56V619.922H334.888L327.64 607.538H324.328V604.898H328.552C330.696 604.898 332.216 604.434 333.112 603.506C334.008 602.546 334.456 601.378 334.456 600.002C334.456 598.658 334.008 597.57 333.112 596.738C332.248 595.874 330.952 595.442 329.224 595.442H322.648V617.378H326.392V619.922H314.968V617.378ZM374.96 602.738C377.808 602.738 380.016 603.554 381.584 605.186C383.152 606.786 383.936 608.914 383.936 611.57C383.936 614.322 383.04 616.498 381.248 618.098C379.456 619.666 377.04 620.45 374 620.45C370.128 620.45 366.848 618.946 364.16 615.938L366.416 613.634C368.592 616.194 371.104 617.474 373.952 617.474C375.968 617.474 377.536 616.946 378.656 615.89C379.808 614.834 380.384 613.426 380.384 611.666C380.384 609.874 379.84 608.45 378.752 607.394C377.696 606.338 376.224 605.81 374.336 605.81C373.152 605.81 372.032 606.034 370.976 606.482C369.952 606.93 369.04 607.554 368.24 608.354L365.408 607.202L365.744 592.898H382.352V599.81H378.992V595.73H368.768L368.48 604.85C369.344 604.178 370.336 603.666 371.456 603.314C372.608 602.93 373.776 602.738 374.96 602.738ZM390.81 607.346H402.282V610.034H390.81V607.346ZM415.85 617.378H420.074V612.818H407.594L407.258 610.418L420.026 592.898H423.338V610.274H427.562V612.818H423.338V617.378H426.602V619.922H415.85V617.378ZM420.074 610.274V597.17L410.474 610.274H420.074Z" fill="white"/>
<path d="M657.268 128.036H661.204V119.012L652.18 106.1H648.58V103.556H659.812V106.1H656.404L663.508 116.468L670.372 106.1H666.916V103.556H677.572V106.1H673.876L665.092 118.964V128.036H669.076V130.58H657.268V128.036ZM712.829 116.324C714.589 116.676 715.997 117.476 717.053 118.724C718.141 119.972 718.685 121.508 718.685 123.332C718.685 125.732 717.821 127.62 716.093 128.996C714.397 130.372 712.061 131.06 709.085 131.06C706.781 131.06 704.797 130.58 703.133 129.62C701.469 128.628 700.125 127.236 699.101 125.444L701.933 123.86C703.597 126.804 706.029 128.276 709.229 128.276C711.085 128.276 712.525 127.844 713.549 126.98C714.605 126.084 715.133 124.868 715.133 123.332C715.133 121.444 714.445 120.052 713.069 119.156C711.693 118.26 709.549 117.812 706.637 117.812V115.076C712.045 115.076 714.749 113.412 714.749 110.084C714.749 108.804 714.269 107.78 713.309 107.012C712.381 106.244 711.053 105.86 709.325 105.86C707.661 105.86 706.237 106.276 705.053 107.108C703.869 107.908 703.021 109.044 702.509 110.516L699.629 109.172C700.429 107.252 701.677 105.764 703.373 104.708C705.069 103.62 707.069 103.076 709.373 103.076C712.029 103.076 714.141 103.7 715.709 104.948C717.309 106.196 718.109 107.86 718.109 109.94C718.109 111.476 717.613 112.82 716.621 113.972C715.661 115.124 714.397 115.908 712.829 116.324ZM735.847 131.108C732.551 131.108 730.055 129.908 728.359 127.508C726.695 125.076 725.863 121.556 725.863 116.948C725.863 112.564 726.711 109.156 728.407 106.724C730.103 104.292 732.583 103.076 735.847 103.076C739.111 103.076 741.591 104.292 743.287 106.724C744.983 109.156 745.831 112.564 745.831 116.948C745.831 121.556 744.983 125.076 743.287 127.508C741.623 129.908 739.143 131.108 735.847 131.108ZM735.847 128.564C737.927 128.564 739.511 127.572 740.599 125.588C741.719 123.604 742.279 120.724 742.279 116.948C742.279 113.268 741.719 110.468 740.599 108.548C739.511 106.596 737.927 105.62 735.847 105.62C733.767 105.62 732.167 106.596 731.047 108.548C729.959 110.468 729.415 113.268 729.415 116.948C729.415 120.724 729.959 123.604 731.047 125.588C732.167 127.572 733.767 128.564 735.847 128.564ZM753.709 118.004H765.181V120.692H753.709V118.004ZM785.326 116.324C787.086 116.676 788.494 117.476 789.55 118.724C790.638 119.972 791.182 121.508 791.182 123.332C791.182 125.732 790.318 127.62 788.59 128.996C786.894 130.372 784.558 131.06 781.582 131.06C779.278 131.06 777.294 130.58 775.63 129.62C773.966 128.628 772.622 127.236 771.598 125.444L774.43 123.86C776.094 126.804 778.526 128.276 781.726 128.276C783.582 128.276 785.022 127.844 786.046 126.98C787.102 126.084 787.63 124.868 787.63 123.332C787.63 121.444 786.942 120.052 785.566 119.156C784.19 118.26 782.046 117.812 779.134 117.812V115.076C784.542 115.076 787.246 113.412 787.246 110.084C787.246 108.804 786.766 107.78 785.806 107.012C784.878 106.244 783.55 105.86 781.822 105.86C780.158 105.86 778.734 106.276 777.55 107.108C776.366 107.908 775.518 109.044 775.006 110.516L772.126 109.172C772.926 107.252 774.174 105.764 775.87 104.708C777.566 103.62 779.566 103.076 781.87 103.076C784.526 103.076 786.638 103.7 788.206 104.948C789.806 106.196 790.606 107.86 790.606 109.94C790.606 111.476 790.11 112.82 789.118 113.972C788.158 115.124 786.894 115.908 785.326 116.324Z" fill="white"/>
<path d="M629.927 351.13V352.57C629.927 356.474 628.743 359.562 626.375 361.834C624.007 364.106 620.663 365.242 616.343 365.242C613.271 365.242 610.615 364.65 608.375 363.466C606.167 362.282 604.471 360.634 603.287 358.522C602.135 356.378 601.559 353.93 601.559 351.178C601.559 348.426 602.183 345.994 603.431 343.882C604.679 341.77 606.407 340.138 608.615 338.986C610.855 337.834 613.399 337.258 616.247 337.258C618.263 337.258 620.055 337.594 621.623 338.266C623.191 338.938 624.487 339.898 625.511 341.146V337.738H628.631V346.09H625.847C624.983 344.17 623.735 342.698 622.103 341.674C620.471 340.618 618.567 340.09 616.391 340.09C613.127 340.09 610.535 341.066 608.615 343.018C606.727 344.97 605.783 347.61 605.783 350.938C605.783 354.458 606.743 357.242 608.663 359.29C610.583 361.338 613.191 362.362 616.487 362.362C619.303 362.298 621.591 361.562 623.351 360.154C625.111 358.746 626.023 356.634 626.087 353.818H620.375V351.13H629.927Z" fill="white"/>
<path d="M632.304 519.127H635.184V502.675H632.304V500.767H638.568L650.16 517.147V502.675H647.28V500.767H655.236V502.675H652.428V521.035H649.512L637.416 503.791V519.127H640.296V521.035H632.304V519.127ZM673.311 514.519H661.647C661.815 516.031 662.355 517.231 663.267 518.119C664.179 518.983 665.343 519.415 666.759 519.415C668.727 519.415 670.515 518.659 672.123 517.147L673.059 518.767C672.363 519.583 671.487 520.243 670.431 520.747C669.375 521.227 668.187 521.467 666.867 521.467C665.379 521.467 664.023 521.155 662.799 520.531C661.575 519.907 660.615 519.031 659.919 517.903C659.223 516.751 658.875 515.443 658.875 513.979C658.875 512.491 659.199 511.183 659.847 510.055C660.519 508.903 661.419 508.027 662.547 507.427C663.699 506.803 664.971 506.491 666.363 506.491C668.523 506.491 670.215 507.151 671.439 508.471C672.687 509.791 673.311 511.579 673.311 513.835V514.519ZM670.683 512.863C670.683 511.495 670.275 510.415 669.459 509.623C668.667 508.831 667.635 508.435 666.363 508.435C665.115 508.435 664.059 508.831 663.195 509.623C662.331 510.415 661.815 511.495 661.647 512.863H670.683ZM687.385 506.527C688.681 506.527 689.845 506.815 690.877 507.391C691.933 507.943 692.761 508.771 693.361 509.875C693.961 510.955 694.261 512.251 694.261 513.763C694.261 515.323 693.925 516.679 693.253 517.831C692.605 518.983 691.717 519.871 690.589 520.495C689.461 521.095 688.237 521.395 686.917 521.395C685.189 521.395 683.737 520.879 682.561 519.847V521.035H677.269V519.127H679.897V502.279H677.341V500.407H682.561V508.147C683.281 507.619 684.061 507.223 684.901 506.959C685.741 506.671 686.569 506.527 687.385 506.527ZM686.449 519.415C687.937 519.415 689.149 518.947 690.085 518.011C691.021 517.051 691.489 515.707 691.489 513.979C691.489 512.299 691.033 510.979 690.121 510.019C689.233 509.059 688.081 508.579 686.665 508.579C685.993 508.579 685.297 508.711 684.577 508.975C683.857 509.239 683.185 509.623 682.561 510.127V517.975C683.137 518.431 683.761 518.791 684.433 519.055C685.129 519.295 685.801 519.415 686.449 519.415ZM714.942 519.127V521.035H709.758L709.686 519.307C707.958 520.699 706.218 521.395 704.466 521.395C702.882 521.395 701.694 520.951 700.902 520.063C700.134 519.175 699.75 518.035 699.75 516.643V508.795H697.374V506.887H702.414V516.355C702.414 517.267 702.63 517.987 703.062 518.515C703.518 519.019 704.19 519.271 705.078 519.271C706.71 519.271 708.246 518.611 709.686 517.291V508.795H707.13V506.887H712.314V519.127H714.942ZM718.101 519.127H720.729V502.279H718.173V500.407H723.393V519.127H725.697V521.035H718.101V519.127ZM744.157 519.127V521.035H739.585L739.441 519.775C738.673 520.351 737.905 520.771 737.137 521.035C736.369 521.299 735.505 521.431 734.545 521.431C733.105 521.431 731.929 521.035 731.017 520.243C730.129 519.427 729.685 518.419 729.685 517.219C729.685 515.683 730.201 514.567 731.233 513.871C732.289 513.151 733.669 512.791 735.373 512.791C736.597 512.791 737.905 512.947 739.297 513.259V511.783C739.297 510.703 738.997 509.887 738.397 509.335C737.821 508.783 737.005 508.507 735.949 508.507C735.253 508.507 734.449 508.627 733.537 508.867C732.649 509.083 731.833 509.395 731.089 509.803L730.297 508.075C731.089 507.571 732.001 507.187 733.033 506.923C734.089 506.659 735.073 506.527 735.985 506.527C737.833 506.527 739.285 506.983 740.341 507.895C741.397 508.783 741.925 509.995 741.925 511.531V519.127H744.157ZM732.205 517.075C732.205 517.819 732.445 518.431 732.925 518.911C733.429 519.367 734.101 519.595 734.941 519.595C736.357 519.595 737.809 519.079 739.297 518.047V514.807C738.025 514.519 736.777 514.375 735.553 514.375C734.593 514.375 733.789 514.591 733.141 515.023C732.517 515.431 732.205 516.115 732.205 517.075ZM774.064 521.035H760.708V519.235L766.54 513.331C767.788 512.059 768.724 511.063 769.348 510.343C769.972 509.599 770.44 508.879 770.752 508.183C771.064 507.487 771.22 506.719 771.22 505.879C771.22 504.847 770.908 503.995 770.284 503.323C769.684 502.651 768.772 502.315 767.548 502.315C766.3 502.315 765.316 502.663 764.596 503.359C763.9 504.055 763.552 505.051 763.552 506.347C763.552 506.947 763.648 507.691 763.84 508.579H761.392C761.176 507.811 761.068 507.055 761.068 506.311C761.068 504.511 761.68 503.083 762.904 502.027C764.152 500.947 765.82 500.407 767.908 500.407C769.756 500.407 771.208 500.887 772.264 501.847C773.344 502.807 773.884 504.055 773.884 505.591C773.884 506.575 773.668 507.511 773.236 508.399C772.804 509.263 772.216 510.127 771.472 510.991C770.728 511.831 769.624 512.983 768.16 514.447L763.624 519.019H771.652V515.167H774.028L774.064 521.035ZM787.061 508.147C789.197 508.147 790.853 508.759 792.029 509.983C793.205 511.183 793.793 512.779 793.793 514.771C793.793 516.835 793.121 518.467 791.777 519.667C790.433 520.843 788.621 521.431 786.341 521.431C783.437 521.431 780.977 520.303 778.961 518.047L780.653 516.319C782.285 518.239 784.169 519.199 786.305 519.199C787.817 519.199 788.993 518.803 789.833 518.011C790.697 517.219 791.129 516.163 791.129 514.843C791.129 513.499 790.721 512.431 789.905 511.639C789.113 510.847 788.009 510.451 786.593 510.451C785.705 510.451 784.865 510.619 784.073 510.955C783.305 511.291 782.621 511.759 782.021 512.359L779.897 511.495L780.149 500.767H792.605V505.951H790.085V502.891H782.417L782.201 509.731C782.849 509.227 783.593 508.843 784.433 508.579C785.297 508.291 786.173 508.147 787.061 508.147Z" fill="white" fill-opacity="0.9"/>
<line x1="637.959" y1="367.9" x2="690.882" y2="367.9" stroke="white" stroke-opacity="0.62" stroke-width="2"/>
<defs>
<filter id="filter0_f" x="509.95" y="384.042" width="76.7996" height="81.259" filterUnits="userSpaceOnUse" color-interpolation-filters="sRGB">
<feFlood flood-opacity="0" result="BackgroundImageFix"/>
<feBlend mode="normal" in="SourceGraphic" in2="BackgroundImageFix" result="shape"/>
<feGaussianBlur stdDeviation="12.5" result="effect1_foregroundBlur"/>
</filter>
<filter id="filter1_f" x="464.209" y="332.267" width="167.493" height="183.89" filterUnits="userSpaceOnUse" color-interpolation-filters="sRGB">
<feFlood flood-opacity="0" result="BackgroundImageFix"/>
<feBlend mode="normal" in="SourceGraphic" in2="BackgroundImageFix" result="shape"/>
<feGaussianBlur stdDeviation="20" result="effect1_foregroundBlur"/>
</filter>
<filter id="filter2_f" x="823.847" y="357.609" width="9.94112" height="10.5969" filterUnits="userSpaceOnUse" color-interpolation-filters="sRGB">
<feFlood flood-opacity="0" result="BackgroundImageFix"/>
<feBlend mode="normal" in="SourceGraphic" in2="BackgroundImageFix" result="shape"/>
<feGaussianBlur stdDeviation="1.5" result="effect1_foregroundBlur"/>
</filter>
<filter id="filter3_f" x="693.633" y="455" width="36.5527" height="39.307" filterUnits="userSpaceOnUse" color-interpolation-filters="sRGB">
<feFlood flood-opacity="0" result="BackgroundImageFix"/>
<feBlend mode="normal" in="SourceGraphic" in2="BackgroundImageFix" result="shape"/>
<feGaussianBlur stdDeviation="5" result="effect1_foregroundBlur"/>
</filter>
<filter id="filter4_f" x="198.682" y="273.001" width="7.73562" height="8.85641" filterUnits="userSpaceOnUse" color-interpolation-filters="sRGB">
<feFlood flood-opacity="0" result="BackgroundImageFix"/>
<feBlend mode="normal" in="SourceGraphic" in2="BackgroundImageFix" result="shape"/>
<feGaussianBlur stdDeviation="0.25" result="effect1_foregroundBlur"/>
</filter>
<filter id="filter5_f" x="430.58" y="624.294" width="7.73562" height="8.85641" filterUnits="userSpaceOnUse" color-interpolation-filters="sRGB">
<feFlood flood-opacity="0" result="BackgroundImageFix"/>
<feBlend mode="normal" in="SourceGraphic" in2="BackgroundImageFix" result="shape"/>
<feGaussianBlur stdDeviation="0.25" result="effect1_foregroundBlur"/>
</filter>
<filter id="filter6_f" x="571.065" y="352.687" width="9.66008" height="11.1011" filterUnits="userSpaceOnUse" color-interpolation-filters="sRGB">
<feFlood flood-opacity="0" result="BackgroundImageFix"/>
<feBlend mode="normal" in="SourceGraphic" in2="BackgroundImageFix" result="shape"/>
<feGaussianBlur stdDeviation="0.25" result="effect1_foregroundBlur"/>
</filter>
<filter id="filter7_f" x="395.939" y="167.5" width="6.77339" height="7.73406" filterUnits="userSpaceOnUse" color-interpolation-filters="sRGB">
<feFlood flood-opacity="0" result="BackgroundImageFix"/>
<feBlend mode="normal" in="SourceGraphic" in2="BackgroundImageFix" result="shape"/>
<feGaussianBlur stdDeviation="0.25" result="effect1_foregroundBlur"/>
</filter>
<filter id="filter8_f" x="571.065" y="308.916" width="8.69785" height="9.97875" filterUnits="userSpaceOnUse" color-interpolation-filters="sRGB">
<feFlood flood-opacity="0" result="BackgroundImageFix"/>
<feBlend mode="normal" in="SourceGraphic" in2="BackgroundImageFix" result="shape"/>
<feGaussianBlur stdDeviation="0.25" result="effect1_foregroundBlur"/>
</filter>
<filter id="filter9_f" x="716.362" y="146.176" width="8.69785" height="9.97875" filterUnits="userSpaceOnUse" color-interpolation-filters="sRGB">
<feFlood flood-opacity="0" result="BackgroundImageFix"/>
<feBlend mode="normal" in="SourceGraphic" in2="BackgroundImageFix" result="shape"/>
<feGaussianBlur stdDeviation="0.25" result="effect1_foregroundBlur"/>
</filter>
</defs>
</svg>
