<svg width="414" height="374" viewBox="0 0 414 374" fill="none" xmlns="http://www.w3.org/2000/svg">
<path d="M204.012 288.17L203.952 288.23L203.901 288.302C192.308 304.72 174.032 320.859 156.096 329.852C147.13 334.347 138.301 337.03 130.468 337.107C122.645 337.183 115.877 334.663 110.909 328.829L110.884 328.8L110.857 328.773C106.747 324.635 105.259 317.576 105.962 308.481C106.663 299.413 109.529 288.574 113.845 277.243C122.474 254.586 136.792 230.24 150.647 214.624L150.657 214.613L150.666 214.602C164.039 198.631 182.091 186.067 198.584 179.469C206.83 176.171 214.646 174.38 221.265 174.378C227.892 174.375 233.191 176.164 236.571 179.848C240.73 184.827 242.61 192.235 242.573 201.156C242.536 210.081 240.576 220.397 237.179 230.99C230.383 252.184 217.913 274.25 204.012 288.17Z" stroke="#0B460D" stroke-opacity="0.85" stroke-width="2"/>
<path d="M149.981 319.091L149.964 319.098L149.947 319.107C125.252 331.256 93.895 341.205 66.513 340.972C39.1584 340.739 15.9235 330.365 7.05813 302.055C1.927 275.602 15.7373 248.549 37.4981 225.431C59.2521 202.32 88.8009 183.318 114.696 173.064L114.708 173.06L114.719 173.055C140.204 161.977 167.005 157.026 190.098 159.776C213.156 162.523 232.46 172.936 243.148 192.527C248.671 214.936 238.103 241.056 219.688 264.42C201.269 287.791 175.137 308.213 149.981 319.091Z" stroke="#940E0E" stroke-opacity="0.69" stroke-width="1.5"/>
<path d="M399.078 166.13L399.08 166.152L399.084 166.174C407.893 218.774 366.643 270.797 311.115 282.489C251.881 294.962 202.966 260.185 195.34 208.534C187.714 156.889 225.245 103.58 283.113 91.1649L283.129 91.1616L283.144 91.1577C343.055 75.6488 393.373 113.278 399.078 166.13Z" stroke="#6D580E" stroke-width="1.5"/>
<path d="M161.91 91.1277L161.91 91.1278L161.918 91.1346C190.61 115.156 213.64 142.479 227.672 166.879C234.689 179.081 239.442 190.529 241.538 200.449C243.634 210.372 243.062 218.703 239.513 224.763C235.967 230.819 229.724 234.134 221.37 234.906C213.015 235.679 202.603 233.9 190.821 229.834C167.26 221.702 138.323 204.457 109.625 180.43C80.9338 156.409 57.0714 128.413 42.2083 103.338C34.7756 90.7977 29.6081 79.0125 27.2022 68.8375C24.7966 58.6633 25.1687 50.1793 28.7044 44.1315C33.0534 37.5631 39.8699 34.0042 48.6128 33.1782C57.366 32.3513 68.0197 34.2687 79.9674 38.621C103.861 47.3251 132.83 65.7304 161.91 91.1277Z" stroke="#F527E1"/>
<path d="M233.731 232.171C225.145 239.007 212.685 237.733 198.617 229.969C184.586 222.225 169.144 208.118 154.781 189.724C140.427 171.342 130.023 151.288 124.896 133.989C122.332 125.338 121.1 117.414 121.331 110.753C121.561 104.118 123.239 98.8032 126.436 95.2198C135.267 87.7188 146.91 89.2691 160.438 97.1518C173.963 105.032 189.162 119.128 204.874 136.214C215.515 147.785 227.362 168.245 234.194 187.673C237.611 197.388 239.751 206.781 239.887 214.634C240.024 222.486 238.163 228.643 233.731 232.171Z" stroke="#F527E1" stroke-opacity="0.62" stroke-width="1.5"/>
<path d="M231.562 236.449C221.825 240.415 211.193 237.152 201.151 228.443C191.118 219.743 181.78 205.687 174.71 188.375C167.646 171.079 164.594 153.154 165.364 138.385C166.136 123.582 170.72 112.219 178.656 107.57C188.821 103.108 198.643 106.449 208.17 115.154C217.714 123.875 226.843 137.883 235.518 154.403C241.373 165.554 245.582 184.059 245.668 200.852C245.711 209.245 244.723 217.145 242.438 223.454C240.157 229.752 236.616 234.39 231.562 236.449Z" stroke="#F527E1" stroke-opacity="0.41" stroke-width="1.5"/>
<g filter="url(#filter0_f)">
<ellipse cx="221.527" cy="208.736" rx="5.9279" ry="7.07927" fill="#FFFEE2"/>
</g>
<g filter="url(#filter1_f)">
<ellipse cx="221.353" cy="208.528" rx="19.3528" ry="23.5281" fill="#FCFF74" fill-opacity="0.33"/>
</g>
<g filter="url(#filter2_f)">
<ellipse cx="350.658" cy="183.853" rx="0.87175" ry="1.04107" fill="white"/>
</g>
<g filter="url(#filter3_f)">
<ellipse cx="298.939" cy="234.467" rx="3.66135" ry="4.37249" fill="white" fill-opacity="0.8"/>
</g>
<g filter="url(#filter4_f)">
<ellipse cx="73.6055" cy="145.136" rx="1.48987" ry="1.77925" fill="#F527E1"/>
</g>
<g filter="url(#filter5_f)">
<ellipse cx="176.194" cy="304.252" rx="1.48987" ry="1.77925" fill="#940E0E"/>
</g>
<g filter="url(#filter6_f)">
<ellipse cx="238.769" cy="181.737" rx="1.91555" ry="2.28761" fill="#0B460D"/>
</g>
<g filter="url(#filter7_f)">
<ellipse cx="160.657" cy="97.0964" rx="1.27704" ry="1.52507" fill="#F527E1" fill-opacity="0.92"/>
</g>
<g filter="url(#filter8_f)">
<ellipse cx="238.556" cy="161.658" rx="1.70271" ry="2.03343" fill="#F527E1" fill-opacity="0.62"/>
</g>
<g filter="url(#filter9_f)">
<ellipse cx="302.833" cy="87.9458" rx="1.70271" ry="2.03343" fill="#6D580E" fill-opacity="0.99"/>
</g>
<path d="M66.9098 128.326H68.3138V120.1H66.9098V119.146H71.9138C73.1498 119.146 74.0918 119.392 74.7398 119.884C75.3878 120.376 75.7118 121.09 75.7118 122.026C75.7118 123.022 75.3758 123.784 74.7038 124.312C74.0438 124.828 73.0838 125.086 71.8238 125.086H70.4738V124.132H71.7698C72.5498 124.132 73.1498 123.952 73.5698 123.592C73.9898 123.232 74.1998 122.716 74.1998 122.044C74.1998 121.42 74.0138 120.94 73.6418 120.604C73.2818 120.268 72.7598 120.1 72.0758 120.1H69.7898V128.326H71.1938V129.28H66.9098V128.326ZM87.8288 129.478C86.6648 129.478 85.7648 129.208 85.1288 128.668C84.4928 128.128 84.1748 127.432 84.1748 126.58C84.1748 125.968 84.3488 125.44 84.6968 124.996C85.0448 124.54 85.5368 124.204 86.1728 123.988C85.5848 123.736 85.1588 123.418 84.8948 123.034C84.6308 122.638 84.4988 122.164 84.4988 121.612C84.4988 120.82 84.7988 120.184 85.3988 119.704C85.9988 119.212 86.8028 118.966 87.8108 118.966C88.8308 118.966 89.6408 119.206 90.2408 119.686C90.8408 120.166 91.1408 120.808 91.1408 121.612C91.1408 122.788 90.5708 123.586 89.4308 124.006C90.0908 124.186 90.5888 124.498 90.9248 124.942C91.2728 125.386 91.4468 125.926 91.4468 126.562C91.4468 127.426 91.1228 128.128 90.4748 128.668C89.8388 129.208 88.9568 129.478 87.8288 129.478ZM88.5668 123.646C88.8308 123.55 89.0948 123.328 89.3588 122.98C89.6348 122.632 89.7728 122.212 89.7728 121.72C89.7728 121.192 89.5988 120.772 89.2508 120.46C88.9148 120.136 88.4348 119.974 87.8108 119.974C87.1988 119.974 86.7188 120.13 86.3708 120.442C86.0348 120.754 85.8668 121.18 85.8668 121.72C85.8668 122.296 86.0948 122.734 86.5508 123.034C87.0068 123.334 87.6788 123.538 88.5668 123.646ZM87.8288 128.452C88.4888 128.452 89.0168 128.278 89.4128 127.93C89.8088 127.582 90.0068 127.114 90.0068 126.526C90.0068 125.878 89.7668 125.404 89.2868 125.104C88.8068 124.792 88.0448 124.552 87.0008 124.384C86.7968 124.432 86.5868 124.558 86.3708 124.762C86.1548 124.954 85.9748 125.206 85.8308 125.518C85.6868 125.818 85.6148 126.148 85.6148 126.508C85.6148 127.096 85.8128 127.57 86.2088 127.93C86.6048 128.278 87.1448 128.452 87.8288 128.452ZM97.7084 129.478C96.4724 129.478 95.5364 129.028 94.9004 128.128C94.2764 127.216 93.9644 125.896 93.9644 124.168C93.9644 122.524 94.2824 121.246 94.9184 120.334C95.5544 119.422 96.4844 118.966 97.7084 118.966C98.9324 118.966 99.8624 119.422 100.498 120.334C101.134 121.246 101.452 122.524 101.452 124.168C101.452 125.896 101.134 127.216 100.498 128.128C99.8744 129.028 98.9444 129.478 97.7084 129.478ZM97.7084 128.524C98.4884 128.524 99.0824 128.152 99.4904 127.408C99.9104 126.664 100.12 125.584 100.12 124.168C100.12 122.788 99.9104 121.738 99.4904 121.018C99.0824 120.286 98.4884 119.92 97.7084 119.92C96.9284 119.92 96.3284 120.286 95.9084 121.018C95.5004 121.738 95.2964 122.788 95.2964 124.168C95.2964 125.584 95.5004 126.664 95.9084 127.408C96.3284 128.152 96.9284 128.524 97.7084 128.524ZM104.407 124.564H108.709V125.572H104.407V124.564ZM111.421 128.326H112.933V120.316L111.403 120.568L111.367 119.614L114.229 119.146V128.326H115.651V129.28H111.421V128.326Z" fill="white"/>
<path d="M127.117 298.117H128.521V289.891H127.117V288.937H132.445C133.525 288.937 134.365 289.165 134.965 289.621C135.577 290.065 135.883 290.719 135.883 291.583C135.883 293.119 135.013 294.019 133.273 294.283L135.595 298.117H137.089V299.071H134.587L131.869 294.427H130.627V293.437H132.211C133.015 293.437 133.585 293.263 133.921 292.915C134.257 292.555 134.425 292.117 134.425 291.601C134.425 291.097 134.257 290.689 133.921 290.377C133.597 290.053 133.111 289.891 132.463 289.891H129.997V298.117H131.401V299.071H127.117V298.117ZM149.614 292.627C150.682 292.627 151.51 292.933 152.098 293.545C152.686 294.145 152.98 294.943 152.98 295.939C152.98 296.971 152.644 297.787 151.972 298.387C151.3 298.975 150.394 299.269 149.254 299.269C147.802 299.269 146.572 298.705 145.564 297.577L146.41 296.713C147.226 297.673 148.168 298.153 149.236 298.153C149.992 298.153 150.58 297.955 151 297.559C151.432 297.163 151.648 296.635 151.648 295.975C151.648 295.303 151.444 294.769 151.036 294.373C150.64 293.977 150.088 293.779 149.38 293.779C148.936 293.779 148.516 293.863 148.12 294.031C147.736 294.199 147.394 294.433 147.094 294.733L146.032 294.301L146.158 288.937H152.386V291.529H151.126V289.999H147.292L147.184 293.419C147.508 293.167 147.88 292.975 148.3 292.843C148.732 292.699 149.17 292.627 149.614 292.627ZM155.558 294.355H159.86V295.363H155.558V294.355ZM164.948 298.117H166.532V296.407H161.852L161.726 295.507L166.514 288.937H167.756V295.453H169.34V296.407H167.756V298.117H168.98V299.071H164.948V298.117ZM166.532 295.453V290.539L162.932 295.453H166.532Z" fill="white"/>
<path d="M279.027 76.4737H280.503V73.0897L277.119 68.2477H275.769V67.2937H279.981V68.2477H278.703L281.367 72.1357L283.941 68.2477H282.645V67.2937H286.641V68.2477H285.255L281.961 73.0717V76.4737H283.455V77.4277H279.027V76.4737ZM299.863 72.0817C300.523 72.2137 301.051 72.5137 301.447 72.9817C301.855 73.4497 302.059 74.0257 302.059 74.7097C302.059 75.6097 301.735 76.3177 301.087 76.8337C300.451 77.3497 299.575 77.6077 298.459 77.6077C297.595 77.6077 296.851 77.4277 296.227 77.0677C295.603 76.6957 295.099 76.1737 294.715 75.5017L295.777 74.9077C296.401 76.0117 297.313 76.5637 298.513 76.5637C299.209 76.5637 299.749 76.4017 300.133 76.0777C300.529 75.7417 300.727 75.2857 300.727 74.7097C300.727 74.0017 300.469 73.4797 299.953 73.1437C299.437 72.8077 298.633 72.6397 297.541 72.6397V71.6137C299.569 71.6137 300.583 70.9897 300.583 69.7417C300.583 69.2617 300.403 68.8777 300.043 68.5897C299.695 68.3017 299.197 68.1577 298.549 68.1577C297.925 68.1577 297.391 68.3137 296.947 68.6257C296.503 68.9257 296.185 69.3517 295.993 69.9037L294.913 69.3997C295.213 68.6797 295.681 68.1217 296.317 67.7257C296.953 67.3177 297.703 67.1137 298.567 67.1137C299.563 67.1137 300.355 67.3477 300.943 67.8157C301.543 68.2837 301.843 68.9077 301.843 69.6877C301.843 70.2637 301.657 70.7677 301.285 71.1997C300.925 71.6317 300.451 71.9257 299.863 72.0817ZM308.495 77.6257C307.259 77.6257 306.323 77.1757 305.687 76.2757C305.063 75.3637 304.751 74.0437 304.751 72.3157C304.751 70.6717 305.069 69.3937 305.705 68.4817C306.341 67.5697 307.271 67.1137 308.495 67.1137C309.719 67.1137 310.649 67.5697 311.285 68.4817C311.921 69.3937 312.239 70.6717 312.239 72.3157C312.239 74.0437 311.921 75.3637 311.285 76.2757C310.661 77.1757 309.731 77.6257 308.495 77.6257ZM308.495 76.6717C309.275 76.6717 309.869 76.2997 310.277 75.5557C310.697 74.8117 310.907 73.7317 310.907 72.3157C310.907 70.9357 310.697 69.8857 310.277 69.1657C309.869 68.4337 309.275 68.0677 308.495 68.0677C307.715 68.0677 307.115 68.4337 306.695 69.1657C306.287 69.8857 306.083 70.9357 306.083 72.3157C306.083 73.7317 306.287 74.8117 306.695 75.5557C307.115 76.2997 307.715 76.6717 308.495 76.6717ZM315.193 72.7117H319.495V73.7197H315.193V72.7117ZM327.049 72.0817C327.709 72.2137 328.237 72.5137 328.633 72.9817C329.041 73.4497 329.245 74.0257 329.245 74.7097C329.245 75.6097 328.921 76.3177 328.273 76.8337C327.637 77.3497 326.761 77.6077 325.645 77.6077C324.781 77.6077 324.037 77.4277 323.413 77.0677C322.789 76.6957 322.285 76.1737 321.901 75.5017L322.963 74.9077C323.587 76.0117 324.499 76.5637 325.699 76.5637C326.395 76.5637 326.935 76.4017 327.319 76.0777C327.715 75.7417 327.913 75.2857 327.913 74.7097C327.913 74.0017 327.655 73.4797 327.139 73.1437C326.623 72.8077 325.819 72.6397 324.727 72.6397V71.6137C326.755 71.6137 327.769 70.9897 327.769 69.7417C327.769 69.2617 327.589 68.8777 327.229 68.5897C326.881 68.3017 326.383 68.1577 325.735 68.1577C325.111 68.1577 324.577 68.3137 324.133 68.6257C323.689 68.9257 323.371 69.3517 323.179 69.9037L322.099 69.3997C322.399 68.6797 322.867 68.1217 323.503 67.7257C324.139 67.3177 324.889 67.1137 325.753 67.1137C326.749 67.1137 327.541 67.3477 328.129 67.8157C328.729 68.2837 329.029 68.9077 329.029 69.6877C329.029 70.2637 328.843 70.7677 328.471 71.1997C328.111 71.6317 327.637 71.9257 327.049 72.0817Z" fill="white"/>
<path d="M261.71 178.104V178.644C261.71 180.108 261.266 181.266 260.378 182.118C259.49 182.97 258.236 183.396 256.616 183.396C255.464 183.396 254.468 183.174 253.628 182.73C252.8 182.286 252.164 181.668 251.72 180.876C251.288 180.072 251.072 179.154 251.072 178.122C251.072 177.09 251.306 176.178 251.774 175.386C252.242 174.594 252.89 173.982 253.718 173.55C254.558 173.118 255.512 172.902 256.58 172.902C257.336 172.902 258.008 173.028 258.596 173.28C259.184 173.532 259.67 173.892 260.054 174.36V173.082H261.224V176.214H260.18C259.856 175.494 259.388 174.942 258.776 174.558C258.164 174.162 257.45 173.964 256.634 173.964C255.41 173.964 254.438 174.33 253.718 175.062C253.01 175.794 252.656 176.784 252.656 178.032C252.656 179.352 253.016 180.396 253.736 181.164C254.456 181.932 255.434 182.316 256.67 182.316C257.726 182.292 258.584 182.016 259.244 181.488C259.904 180.96 260.246 180.168 260.27 179.112H258.128V178.104H261.71Z" fill="white"/>
<path d="M259.073 254.686H260.513V246.46H259.073V245.506H262.205L268.001 253.696V246.46H266.561V245.506H270.539V246.46H269.135V255.64H267.677L261.629 247.018V254.686H263.069V255.64H259.073V254.686ZM279.577 252.382H273.745C273.829 253.138 274.099 253.738 274.555 254.182C275.011 254.614 275.593 254.83 276.301 254.83C277.285 254.83 278.179 254.452 278.983 253.696L279.451 254.506C279.103 254.914 278.665 255.244 278.137 255.496C277.609 255.736 277.015 255.856 276.355 255.856C275.611 255.856 274.933 255.7 274.321 255.388C273.709 255.076 273.229 254.638 272.881 254.074C272.533 253.498 272.359 252.844 272.359 252.112C272.359 251.368 272.521 250.714 272.845 250.15C273.181 249.574 273.631 249.136 274.195 248.836C274.771 248.524 275.407 248.368 276.103 248.368C277.183 248.368 278.029 248.698 278.641 249.358C279.265 250.018 279.577 250.912 279.577 252.04V252.382ZM278.263 251.554C278.263 250.87 278.059 250.33 277.651 249.934C277.255 249.538 276.739 249.34 276.103 249.34C275.479 249.34 274.951 249.538 274.519 249.934C274.087 250.33 273.829 250.87 273.745 251.554H278.263ZM286.613 248.386C287.261 248.386 287.843 248.53 288.359 248.818C288.887 249.094 289.301 249.508 289.601 250.06C289.901 250.6 290.051 251.248 290.051 252.004C290.051 252.784 289.883 253.462 289.547 254.038C289.223 254.614 288.779 255.058 288.215 255.37C287.651 255.67 287.039 255.82 286.379 255.82C285.515 255.82 284.789 255.562 284.201 255.046V255.64H281.555V254.686H282.869V246.262H281.591V245.326H284.201V249.196C284.561 248.932 284.951 248.734 285.371 248.602C285.791 248.458 286.205 248.386 286.613 248.386ZM286.145 254.83C286.889 254.83 287.495 254.596 287.963 254.128C288.431 253.648 288.665 252.976 288.665 252.112C288.665 251.272 288.437 250.612 287.981 250.132C287.537 249.652 286.961 249.412 286.253 249.412C285.917 249.412 285.569 249.478 285.209 249.61C284.849 249.742 284.513 249.934 284.201 250.186V254.11C284.489 254.338 284.801 254.518 285.137 254.65C285.485 254.77 285.821 254.83 286.145 254.83ZM300.392 254.686V255.64H297.8L297.764 254.776C296.9 255.472 296.03 255.82 295.154 255.82C294.362 255.82 293.768 255.598 293.372 255.154C292.988 254.71 292.796 254.14 292.796 253.444V249.52H291.608V248.566H294.128V253.3C294.128 253.756 294.236 254.116 294.452 254.38C294.68 254.632 295.016 254.758 295.46 254.758C296.276 254.758 297.044 254.428 297.764 253.768V249.52H296.486V248.566H299.078V254.686H300.392ZM301.972 254.686H303.286V246.262H302.008V245.326H304.618V254.686H305.77V255.64H301.972V254.686ZM314.999 254.686V255.64H312.713L312.641 255.01C312.257 255.298 311.873 255.508 311.489 255.64C311.105 255.772 310.673 255.838 310.193 255.838C309.473 255.838 308.885 255.64 308.429 255.244C307.985 254.836 307.763 254.332 307.763 253.732C307.763 252.964 308.021 252.406 308.537 252.058C309.065 251.698 309.755 251.518 310.607 251.518C311.219 251.518 311.873 251.596 312.569 251.752V251.014C312.569 250.474 312.419 250.066 312.119 249.79C311.831 249.514 311.423 249.376 310.895 249.376C310.547 249.376 310.145 249.436 309.689 249.556C309.245 249.664 308.837 249.82 308.465 250.024L308.069 249.16C308.465 248.908 308.921 248.716 309.437 248.584C309.965 248.452 310.457 248.386 310.913 248.386C311.837 248.386 312.563 248.614 313.091 249.07C313.619 249.514 313.883 250.12 313.883 250.888V254.686H314.999ZM309.023 253.66C309.023 254.032 309.143 254.338 309.383 254.578C309.635 254.806 309.971 254.92 310.391 254.92C311.099 254.92 311.825 254.662 312.569 254.146V252.526C311.933 252.382 311.309 252.31 310.697 252.31C310.217 252.31 309.815 252.418 309.491 252.634C309.179 252.838 309.023 253.18 309.023 253.66ZM329.953 255.64H323.275V254.74L326.191 251.788C326.815 251.152 327.283 250.654 327.595 250.294C327.907 249.922 328.141 249.562 328.297 249.214C328.453 248.866 328.531 248.482 328.531 248.062C328.531 247.546 328.375 247.12 328.063 246.784C327.763 246.448 327.307 246.28 326.695 246.28C326.071 246.28 325.579 246.454 325.219 246.802C324.871 247.15 324.697 247.648 324.697 248.296C324.697 248.596 324.745 248.968 324.841 249.412H323.617C323.509 249.028 323.455 248.65 323.455 248.278C323.455 247.378 323.761 246.664 324.373 246.136C324.997 245.596 325.831 245.326 326.875 245.326C327.799 245.326 328.525 245.566 329.053 246.046C329.593 246.526 329.863 247.15 329.863 247.918C329.863 248.41 329.755 248.878 329.539 249.322C329.323 249.754 329.029 250.186 328.657 250.618C328.285 251.038 327.733 251.614 327.001 252.346L324.733 254.632H328.747V252.706H329.935L329.953 255.64ZM336.451 249.196C337.519 249.196 338.347 249.502 338.935 250.114C339.523 250.714 339.817 251.512 339.817 252.508C339.817 253.54 339.481 254.356 338.809 254.956C338.137 255.544 337.231 255.838 336.091 255.838C334.639 255.838 333.409 255.274 332.401 254.146L333.247 253.282C334.063 254.242 335.005 254.722 336.073 254.722C336.829 254.722 337.417 254.524 337.837 254.128C338.269 253.732 338.485 253.204 338.485 252.544C338.485 251.872 338.281 251.338 337.873 250.942C337.477 250.546 336.925 250.348 336.217 250.348C335.773 250.348 335.353 250.432 334.957 250.6C334.573 250.768 334.231 251.002 333.931 251.302L332.869 250.87L332.995 245.506H339.223V248.098H337.963V246.568H334.129L334.021 249.988C334.345 249.736 334.717 249.544 335.137 249.412C335.569 249.268 336.007 249.196 336.451 249.196Z" fill="white" fill-opacity="0.9"/>
<line x1="266.225" y1="185.567" x2="289.637" y2="185.567" stroke="white" stroke-opacity="0.62" stroke-width="2"/>
<defs>
<filter id="filter0_f" x="190.599" y="176.657" width="61.8558" height="64.1585" filterUnits="userSpaceOnUse" color-interpolation-filters="sRGB">
<feFlood flood-opacity="0" result="BackgroundImageFix"/>
<feBlend mode="normal" in="SourceGraphic" in2="BackgroundImageFix" result="shape"/>
<feGaussianBlur stdDeviation="12.5" result="effect1_foregroundBlur"/>
</filter>
<filter id="filter1_f" x="162" y="145" width="118.706" height="127.056" filterUnits="userSpaceOnUse" color-interpolation-filters="sRGB">
<feFlood flood-opacity="0" result="BackgroundImageFix"/>
<feBlend mode="normal" in="SourceGraphic" in2="BackgroundImageFix" result="shape"/>
<feGaussianBlur stdDeviation="20" result="effect1_foregroundBlur"/>
</filter>
<filter id="filter2_f" x="346.786" y="179.812" width="7.7435" height="8.08214" filterUnits="userSpaceOnUse" color-interpolation-filters="sRGB">
<feFlood flood-opacity="0" result="BackgroundImageFix"/>
<feBlend mode="normal" in="SourceGraphic" in2="BackgroundImageFix" result="shape"/>
<feGaussianBlur stdDeviation="1.5" result="effect1_foregroundBlur"/>
</filter>
<filter id="filter3_f" x="285.278" y="220.095" width="27.3227" height="28.745" filterUnits="userSpaceOnUse" color-interpolation-filters="sRGB">
<feFlood flood-opacity="0" result="BackgroundImageFix"/>
<feBlend mode="normal" in="SourceGraphic" in2="BackgroundImageFix" result="shape"/>
<feGaussianBlur stdDeviation="5" result="effect1_foregroundBlur"/>
</filter>
<filter id="filter4_f" x="71.6157" y="142.857" width="3.97975" height="4.5585" filterUnits="userSpaceOnUse" color-interpolation-filters="sRGB">
<feFlood flood-opacity="0" result="BackgroundImageFix"/>
<feBlend mode="normal" in="SourceGraphic" in2="BackgroundImageFix" result="shape"/>
<feGaussianBlur stdDeviation="0.25" result="effect1_foregroundBlur"/>
</filter>
<filter id="filter5_f" x="174.204" y="301.973" width="3.97975" height="4.5585" filterUnits="userSpaceOnUse" color-interpolation-filters="sRGB">
<feFlood flood-opacity="0" result="BackgroundImageFix"/>
<feBlend mode="normal" in="SourceGraphic" in2="BackgroundImageFix" result="shape"/>
<feGaussianBlur stdDeviation="0.25" result="effect1_foregroundBlur"/>
</filter>
<filter id="filter6_f" x="236.353" y="178.95" width="4.83111" height="5.57522" filterUnits="userSpaceOnUse" color-interpolation-filters="sRGB">
<feFlood flood-opacity="0" result="BackgroundImageFix"/>
<feBlend mode="normal" in="SourceGraphic" in2="BackgroundImageFix" result="shape"/>
<feGaussianBlur stdDeviation="0.25" result="effect1_foregroundBlur"/>
</filter>
<filter id="filter7_f" x="158.88" y="95.0713" width="3.55407" height="4.05014" filterUnits="userSpaceOnUse" color-interpolation-filters="sRGB">
<feFlood flood-opacity="0" result="BackgroundImageFix"/>
<feBlend mode="normal" in="SourceGraphic" in2="BackgroundImageFix" result="shape"/>
<feGaussianBlur stdDeviation="0.25" result="effect1_foregroundBlur"/>
</filter>
<filter id="filter8_f" x="236.353" y="159.124" width="4.40543" height="5.06686" filterUnits="userSpaceOnUse" color-interpolation-filters="sRGB">
<feFlood flood-opacity="0" result="BackgroundImageFix"/>
<feBlend mode="normal" in="SourceGraphic" in2="BackgroundImageFix" result="shape"/>
<feGaussianBlur stdDeviation="0.25" result="effect1_foregroundBlur"/>
</filter>
<filter id="filter9_f" x="300.631" y="85.4124" width="4.40543" height="5.06686" filterUnits="userSpaceOnUse" color-interpolation-filters="sRGB">
<feFlood flood-opacity="0" result="BackgroundImageFix"/>
<feBlend mode="normal" in="SourceGraphic" in2="BackgroundImageFix" result="shape"/>
<feGaussianBlur stdDeviation="0.25" result="effect1_foregroundBlur"/>
</filter>
</defs>
</svg>
