<svg width="1011" height="735" viewBox="0 0 1011 735" fill="none" xmlns="http://www.w3.org/2000/svg">
<path d="M516.935 566.966L516.803 567.077L516.691 567.21C489.442 599.523 446.492 631.283 404.338 648.98C383.266 657.827 362.505 663.112 344.082 663.262C325.68 663.413 309.743 658.448 298.039 646.941L297.984 646.888L297.926 646.838C288.221 638.656 284.727 624.715 286.379 606.806C288.027 588.948 294.767 567.611 304.908 545.316C325.188 500.732 358.833 452.825 391.394 422.095L391.415 422.075L391.436 422.054C422.868 390.622 465.293 365.895 504.057 352.911C523.436 346.42 541.814 342.894 557.38 342.889C572.966 342.884 585.455 346.406 593.429 353.686C603.236 363.515 607.658 378.127 607.57 395.698C607.482 413.276 602.873 433.585 594.89 454.433C578.918 496.142 549.612 539.567 516.935 566.966Z" stroke="#0B460D" stroke-opacity="0.85" stroke-width="4"/>
<path d="M389.92 627.692L389.89 627.704L389.859 627.716C331.809 651.631 258.085 671.221 193.689 670.763C129.289 670.304 74.7557 649.837 53.9656 594.265C41.9373 542.312 74.3382 489.076 125.538 443.53C176.685 398.03 246.155 360.62 307.043 340.432L307.064 340.426L307.084 340.418C367.009 318.607 430.034 308.855 484.345 314.273C538.587 319.683 583.921 340.19 609 378.664C621.93 422.654 597.155 474.026 553.837 520.048C510.532 566.055 449.09 606.269 389.92 627.692Z" stroke="#940E0E" stroke-opacity="0.69" stroke-width="3"/>
<path d="M975.342 326.743L975.349 326.794L975.359 326.845C985.688 378.491 966.7 429.888 928.703 471.327C890.704 512.767 833.758 544.157 768.452 555.672C628.931 580.273 514.106 511.634 496.23 410.255C478.356 308.885 566.365 203.837 702.676 179.35L702.702 179.345L702.728 179.34C843.882 148.743 961.974 223.037 975.342 326.743Z" stroke="#6D580E" stroke-width="3"/>
<path d="M418.079 179.093L418.087 179.099L418.095 179.105C485.54 226.33 539.678 280.054 572.663 328.04C589.158 352.037 600.332 374.554 605.259 394.072C610.188 413.6 608.833 429.981 600.496 441.888C592.163 453.788 577.488 460.315 557.831 461.839C538.177 463.363 513.688 459.868 485.985 451.875C430.587 435.891 362.56 401.989 295.104 354.755C227.659 307.53 171.566 252.485 136.628 203.173C119.156 178.512 107.006 155.331 101.351 135.312C95.6947 115.29 96.579 98.6073 104.886 86.7235C115.105 73.8147 131.129 66.8081 151.7 65.1785C172.291 63.5473 197.348 67.3156 225.441 75.871C281.622 92.98 349.723 129.165 418.079 179.093Z" stroke="#F527E1" stroke-width="2"/>
<path d="M586.848 456.996C566.514 470.552 537.09 467.979 504.015 452.695C471.003 437.439 434.694 409.659 400.933 373.456C367.19 337.27 342.721 297.785 330.66 263.706C324.629 246.663 321.721 231.031 322.266 217.87C322.81 204.748 326.778 194.181 334.394 187.043C355.314 172.149 382.837 175.27 414.656 190.794C446.471 206.317 482.203 234.07 519.119 267.685C544.156 290.483 572.012 330.771 588.079 369.026C596.113 388.154 601.157 406.676 601.479 422.185C601.8 437.689 597.412 449.953 586.848 456.996Z" stroke="#F527E1" stroke-opacity="0.62" stroke-width="2.5"/>
<path d="M581.374 464.686C558.558 472.468 533.694 466.064 510.217 449.016C486.741 431.969 464.865 404.406 448.29 370.423C431.738 336.486 424.594 301.329 426.396 272.387C428.201 243.405 438.909 221.156 457.491 212.038C481.31 203.284 504.264 209.847 526.519 226.874C548.857 243.966 570.256 271.449 590.621 303.923C604.302 325.739 614.169 362.021 614.37 394.971C614.471 411.429 612.157 426.9 606.819 439.242C601.494 451.554 593.217 460.646 581.374 464.686Z" stroke="#F527E1" stroke-opacity="0.41" stroke-width="4"/>
<g filter="url(#filter0_f)">
<circle cx="569.873" cy="416.692" r="13.9258" fill="#FFFEE2"/>
</g>
<g filter="url(#filter1_f)">
<ellipse cx="569.464" cy="416.283" rx="45.4635" ry="46.2827" fill="#FCFF74" fill-opacity="0.2"/>
</g>
<g filter="url(#filter2_f)">
<circle cx="861.349" cy="361.66" r="2.04791" fill="white"/>
</g>
<g filter="url(#filter3_f)">
<circle cx="861.349" cy="361.66" r="8.60121" fill="white" fill-opacity="0.6"/>
</g>
<g filter="url(#filter4_f)">
<circle cx="210.5" cy="285.5" r="3.5" fill="#F527E1"/>
</g>
<g filter="url(#filter5_f)">
<circle cx="451.5" cy="598.5" r="3.5" fill="#940E0E"/>
</g>
<g filter="url(#filter6_f)">
<circle cx="598.5" cy="357.5" r="4.5" fill="#0B460D"/>
</g>
<g filter="url(#filter7_f)">
<circle cx="415" cy="191" r="3" fill="#F527E1" fill-opacity="0.92"/>
</g>
<g filter="url(#filter8_f)">
<circle cx="598" cy="318" r="4" fill="#F527E1" fill-opacity="0.62"/>
</g>
<g filter="url(#filter9_f)">
<circle cx="749" cy="173" r="4" fill="#6D580E" fill-opacity="0.99"/>
</g>
<path d="M701.333 148.596H704.285V141.54L697.157 131.136H694.457V129.732H702.053V131.136H699.461L705.509 140.1L711.413 131.136H708.749V129.732H716.129V131.136H713.393L706.373 141.54V148.596H709.361V150H701.333V148.596ZM741.188 139.344C742.628 139.584 743.756 140.172 744.572 141.108C745.412 142.044 745.832 143.22 745.832 144.636C745.832 146.388 745.208 147.78 743.96 148.812C742.712 149.844 741.032 150.36 738.92 150.36C735.488 150.36 733.052 149.004 731.612 146.292L733.16 145.392C734.336 147.672 736.268 148.812 738.956 148.812C740.468 148.812 741.668 148.44 742.556 147.696C743.444 146.952 743.888 145.932 743.888 144.636C743.888 141.636 741.692 140.136 737.3 140.136V138.624C739.364 138.624 740.936 138.288 742.016 137.616C743.096 136.944 743.636 135.948 743.636 134.628C743.636 133.476 743.228 132.564 742.412 131.892C741.62 131.22 740.492 130.884 739.028 130.884C737.684 130.884 736.532 131.196 735.572 131.82C734.612 132.444 733.916 133.32 733.484 134.448L731.936 133.728C732.488 132.36 733.388 131.292 734.636 130.524C735.884 129.756 737.36 129.372 739.064 129.372C741.056 129.372 742.616 129.84 743.744 130.776C744.896 131.688 745.472 132.948 745.472 134.556C745.472 135.804 745.088 136.848 744.32 137.688C743.552 138.528 742.508 139.08 741.188 139.344ZM758.889 150.396C756.465 150.396 754.629 149.496 753.381 147.696C752.133 145.872 751.509 143.256 751.509 139.848C751.509 136.512 752.133 133.932 753.381 132.108C754.653 130.284 756.489 129.372 758.889 129.372C761.289 129.372 763.125 130.284 764.397 132.108C765.669 133.932 766.305 136.512 766.305 139.848C766.305 143.256 765.669 145.872 764.397 147.696C763.149 149.496 761.313 150.396 758.889 150.396ZM758.817 148.992C760.617 148.992 761.985 148.212 762.921 146.652C763.881 145.092 764.361 142.824 764.361 139.848C764.361 136.896 763.893 134.652 762.957 133.116C762.021 131.556 760.665 130.776 758.889 130.776C757.113 130.776 755.757 131.556 754.821 133.116C753.885 134.652 753.417 136.896 753.417 139.848C753.417 142.8 753.873 145.068 754.785 146.652C755.721 148.212 757.065 148.992 758.817 148.992ZM772.863 140.568H781.683V142.044H772.863V140.568ZM796.65 139.344C798.09 139.584 799.218 140.172 800.034 141.108C800.874 142.044 801.294 143.22 801.294 144.636C801.294 146.388 800.67 147.78 799.422 148.812C798.174 149.844 796.494 150.36 794.382 150.36C790.95 150.36 788.514 149.004 787.074 146.292L788.622 145.392C789.798 147.672 791.73 148.812 794.418 148.812C795.93 148.812 797.13 148.44 798.018 147.696C798.906 146.952 799.35 145.932 799.35 144.636C799.35 141.636 797.154 140.136 792.762 140.136V138.624C794.826 138.624 796.398 138.288 797.478 137.616C798.558 136.944 799.098 135.948 799.098 134.628C799.098 133.476 798.69 132.564 797.874 131.892C797.082 131.22 795.954 130.884 794.49 130.884C793.146 130.884 791.994 131.196 791.034 131.82C790.074 132.444 789.378 133.32 788.946 134.448L787.398 133.728C787.95 132.36 788.85 131.292 790.098 130.524C791.346 129.756 792.822 129.372 794.526 129.372C796.518 129.372 798.078 129.84 799.206 130.776C800.358 131.688 800.934 132.948 800.934 134.556C800.934 135.804 800.55 136.848 799.782 137.688C799.014 138.528 797.97 139.08 796.65 139.344Z" fill="white"/>
<path d="M218.113 277.596H221.029V260.136H218.113V258.732H228.517C230.701 258.732 232.381 259.224 233.557 260.208C234.757 261.168 235.357 262.536 235.357 264.312C235.357 266.28 234.757 267.804 233.557 268.884C232.357 269.94 230.653 270.468 228.445 270.468H224.665V269.064H228.409C229.945 269.064 231.121 268.656 231.937 267.84C232.777 267.024 233.197 265.86 233.197 264.348C233.197 263.004 232.801 261.972 232.009 261.252C231.241 260.508 230.137 260.136 228.697 260.136H223.153V277.596H226.069V279H218.113V277.596ZM259.305 279.396C257.121 279.396 255.405 278.868 254.157 277.812C252.933 276.756 252.321 275.376 252.321 273.672C252.321 272.352 252.669 271.212 253.365 270.252C254.085 269.292 255.117 268.656 256.461 268.344C255.237 267.864 254.349 267.24 253.797 266.472C253.245 265.68 252.969 264.708 252.969 263.556C252.969 261.996 253.533 260.748 254.661 259.812C255.813 258.852 257.361 258.372 259.305 258.372C261.225 258.372 262.761 258.84 263.913 259.776C265.065 260.712 265.641 261.972 265.641 263.556C265.641 264.756 265.341 265.788 264.741 266.652C264.165 267.516 263.265 268.116 262.041 268.452C263.433 268.764 264.489 269.376 265.209 270.288C265.929 271.2 266.289 272.328 266.289 273.672C266.289 275.4 265.665 276.792 264.417 277.848C263.169 278.88 261.465 279.396 259.305 279.396ZM260.853 267.876C261.645 267.636 262.305 267.168 262.833 266.472C263.385 265.776 263.661 264.852 263.661 263.7C263.661 262.524 263.277 261.588 262.509 260.892C261.741 260.196 260.673 259.848 259.305 259.848C257.961 259.848 256.893 260.196 256.101 260.892C255.333 261.588 254.949 262.524 254.949 263.7C254.949 264.972 255.429 265.944 256.389 266.616C257.373 267.288 258.861 267.708 260.853 267.876ZM259.305 277.884C260.817 277.884 262.005 277.5 262.869 276.732C263.757 275.964 264.201 274.932 264.201 273.636C264.201 272.196 263.697 271.116 262.689 270.396C261.681 269.652 260.049 269.16 257.793 268.92C256.809 269.112 255.993 269.628 255.345 270.468C254.697 271.284 254.373 272.328 254.373 273.6C254.373 274.896 254.817 275.94 255.705 276.732C256.593 277.5 257.793 277.884 259.305 277.884ZM278.858 279.396C276.434 279.396 274.598 278.496 273.35 276.696C272.102 274.872 271.478 272.256 271.478 268.848C271.478 265.512 272.102 262.932 273.35 261.108C274.622 259.284 276.458 258.372 278.858 258.372C281.258 258.372 283.094 259.284 284.366 261.108C285.638 262.932 286.274 265.512 286.274 268.848C286.274 272.256 285.638 274.872 284.366 276.696C283.118 278.496 281.282 279.396 278.858 279.396ZM278.786 277.992C280.586 277.992 281.954 277.212 282.89 275.652C283.85 274.092 284.33 271.824 284.33 268.848C284.33 265.896 283.862 263.652 282.926 262.116C281.99 260.556 280.634 259.776 278.858 259.776C277.082 259.776 275.726 260.556 274.79 262.116C273.854 263.652 273.386 265.896 273.386 268.848C273.386 271.8 273.842 274.068 274.754 275.652C275.69 277.212 277.034 277.992 278.786 277.992ZM292.831 269.568H301.651V271.044H292.831V269.568ZM307.727 277.596H310.679V260.532L307.691 261.144L307.655 259.704L312.551 258.732V277.596H315.431V279H307.727V277.596Z" fill="white"/>
<path d="M356.462 590.596H359.378V573.136H356.462V571.732H367.298C369.338 571.732 370.91 572.224 372.014 573.208C373.118 574.168 373.67 575.452 373.67 577.06C373.67 578.548 373.214 579.784 372.302 580.768C371.414 581.728 369.974 582.292 367.982 582.46L372.986 590.596H375.974V592H371.546L365.93 582.64H362.762V581.164H366.614C368.438 581.164 369.722 580.768 370.466 579.976C371.21 579.184 371.582 578.224 371.582 577.096C371.582 575.968 371.234 575.032 370.538 574.288C369.842 573.52 368.774 573.136 367.334 573.136H361.502V590.596H364.418V592H356.462V590.596ZM400.457 579.148C402.569 579.148 404.201 579.748 405.353 580.948C406.529 582.148 407.117 583.744 407.117 585.736C407.117 587.776 406.457 589.396 405.137 590.596C403.841 591.796 402.077 592.396 399.845 592.396C396.941 592.396 394.541 591.268 392.645 589.012L393.905 587.788C394.649 588.724 395.525 589.456 396.533 589.984C397.541 590.512 398.633 590.776 399.809 590.776C401.537 590.776 402.857 590.332 403.769 589.444C404.705 588.532 405.173 587.308 405.173 585.772C405.173 584.236 404.729 583.024 403.841 582.136C402.977 581.248 401.753 580.804 400.169 580.804C398.249 580.804 396.605 581.488 395.237 582.856L393.617 582.172L393.869 571.732H406.109V576.484H404.273V573.28H395.525L395.309 580.948C395.981 580.396 396.761 579.964 397.649 579.652C398.537 579.316 399.473 579.148 400.457 579.148ZM412.963 582.568H421.783V584.044H412.963V582.568ZM432.79 590.596H435.994V586.672H426.634L426.418 585.304L436.066 571.732H437.794V585.232H441.178V586.672H437.794V590.596H440.278V592H432.79V590.596ZM435.994 585.232V574.288L428.218 585.232H435.994Z" fill="white"/>
<path d="M779.386 401.596H782.158V384.136H779.386V382.732H784.462L797.53 400.156V384.136H794.722V382.732H801.778V384.136H799.222V403H797.098L783.85 385.144V401.596H786.586V403H779.386V401.596ZM819.962 396.34H807.686C807.806 398.02 808.382 399.376 809.414 400.408C810.47 401.416 811.79 401.92 813.374 401.92C814.43 401.92 815.462 401.692 816.47 401.236C817.478 400.78 818.318 400.192 818.99 399.472L819.674 400.732C818.882 401.572 817.946 402.232 816.866 402.712C815.81 403.192 814.67 403.432 813.446 403.432C812.03 403.432 810.722 403.12 809.522 402.496C808.346 401.872 807.41 400.996 806.714 399.868C806.018 398.74 805.67 397.432 805.67 395.944C805.67 394.408 806.006 393.076 806.678 391.948C807.35 390.82 808.238 389.956 809.342 389.356C810.47 388.756 811.706 388.456 813.05 388.456C815.114 388.456 816.782 389.116 818.054 390.436C819.326 391.732 819.962 393.544 819.962 395.872V396.34ZM818.054 395.116C818.054 393.46 817.574 392.176 816.614 391.264C815.654 390.352 814.466 389.896 813.05 389.896C811.61 389.896 810.386 390.364 809.378 391.3C808.37 392.236 807.806 393.508 807.686 395.116H818.054ZM833.886 388.492C835.974 388.492 837.666 389.14 838.962 390.436C840.258 391.708 840.906 393.472 840.906 395.728C840.906 397.288 840.582 398.644 839.934 399.796C839.286 400.948 838.398 401.836 837.27 402.46C836.142 403.06 834.882 403.36 833.49 403.36C832.602 403.36 831.75 403.216 830.934 402.928C830.142 402.616 829.434 402.172 828.81 401.596V403H824.31V401.596H826.866V383.776H824.418V382.372H828.81V390.256C829.554 389.68 830.37 389.248 831.258 388.96C832.146 388.648 833.022 388.492 833.886 388.492ZM833.202 401.92C834.906 401.92 836.274 401.392 837.306 400.336C838.362 399.28 838.89 397.816 838.89 395.944C838.89 394.096 838.386 392.644 837.378 391.588C836.37 390.508 835.05 389.968 833.418 389.968C832.674 389.968 831.894 390.124 831.078 390.436C830.286 390.748 829.53 391.18 828.81 391.732V400.156C829.458 400.708 830.166 401.14 830.934 401.452C831.702 401.764 832.458 401.92 833.202 401.92ZM861.341 401.596V403H856.877L856.805 401.272C855.029 402.664 853.181 403.36 851.261 403.36C849.677 403.36 848.525 402.928 847.805 402.064C847.085 401.176 846.725 400.12 846.725 398.896V390.256H844.169V388.852H848.669V398.752C848.669 399.664 848.909 400.408 849.389 400.984C849.893 401.536 850.637 401.812 851.621 401.812C852.581 401.812 853.469 401.644 854.285 401.308C855.125 400.972 855.953 400.468 856.769 399.796V390.256H854.177V388.852H858.713V401.596H861.341ZM864.648 401.596H867.276V383.776H864.756V382.372H869.22V401.596H871.668V403H864.648V401.596ZM889.709 401.596V403H885.857L885.677 401.632C884.789 402.232 883.925 402.676 883.085 402.964C882.269 403.252 881.405 403.396 880.493 403.396C879.053 403.396 877.889 403 877.001 402.208C876.113 401.416 875.669 400.408 875.669 399.184C875.669 397.672 876.161 396.58 877.145 395.908C878.129 395.236 879.425 394.9 881.033 394.9C882.377 394.9 883.889 395.08 885.569 395.44V393.64C885.569 392.416 885.233 391.492 884.561 390.868C883.913 390.244 883.013 389.932 881.861 389.932C881.141 389.932 880.337 390.052 879.449 390.292C878.561 390.508 877.733 390.808 876.965 391.192L876.389 389.86C877.229 389.428 878.141 389.092 879.125 388.852C880.109 388.612 881.009 388.492 881.825 388.492C883.697 388.492 885.101 388.96 886.037 389.896C886.997 390.808 887.477 391.972 887.477 393.388V401.596H889.709ZM877.541 399.112C877.541 399.952 877.829 400.648 878.405 401.2C878.981 401.752 879.761 402.028 880.745 402.028C881.513 402.028 882.269 401.896 883.013 401.632C883.781 401.344 884.633 400.912 885.569 400.336V396.628C884.009 396.268 882.533 396.088 881.141 396.088C880.085 396.088 879.221 396.328 878.549 396.808C877.877 397.264 877.541 398.032 877.541 399.112ZM919.202 403H906.206V401.632L912.65 395.152C914.354 393.448 915.53 392.092 916.178 391.084C916.826 390.076 917.15 388.996 917.15 387.844C917.15 386.62 916.778 385.636 916.034 384.892C915.314 384.148 914.27 383.776 912.902 383.776C911.486 383.776 910.37 384.16 909.554 384.928C908.738 385.696 908.33 386.776 908.33 388.168C908.33 388.744 908.426 389.476 908.618 390.364H906.854C906.638 389.596 906.53 388.84 906.53 388.096C906.53 386.368 907.118 384.988 908.294 383.956C909.494 382.9 911.102 382.372 913.118 382.372C914.966 382.372 916.418 382.852 917.474 383.812C918.554 384.772 919.094 386.056 919.094 387.664C919.094 388.984 918.686 390.232 917.87 391.408C917.078 392.584 915.722 394.132 913.802 396.052L908.366 401.488H917.438V397.744H919.166L919.202 403ZM932.264 390.148C934.376 390.148 936.008 390.748 937.16 391.948C938.336 393.148 938.924 394.744 938.924 396.736C938.924 398.776 938.264 400.396 936.944 401.596C935.648 402.796 933.884 403.396 931.652 403.396C928.748 403.396 926.348 402.268 924.452 400.012L925.712 398.788C926.456 399.724 927.332 400.456 928.34 400.984C929.348 401.512 930.44 401.776 931.616 401.776C933.344 401.776 934.664 401.332 935.576 400.444C936.512 399.532 936.98 398.308 936.98 396.772C936.98 395.236 936.536 394.024 935.648 393.136C934.784 392.248 933.56 391.804 931.976 391.804C930.056 391.804 928.412 392.488 927.044 393.856L925.424 393.172L925.676 382.732H937.916V387.484H936.08V384.28H927.332L927.116 391.948C927.788 391.396 928.568 390.964 929.456 390.652C930.344 390.316 931.28 390.148 932.264 390.148Z" fill="white" fill-opacity="0.6"/>
<path d="M645.785 357.028V357.676C645.785 359.884 645.341 361.72 644.453 363.184C643.565 364.624 642.377 365.68 640.889 366.352C639.401 367.024 637.733 367.36 635.885 367.36C633.677 367.36 631.757 366.928 630.125 366.064C628.493 365.176 627.245 363.94 626.381 362.356C625.517 360.748 625.085 358.888 625.085 356.776C625.085 354.712 625.529 352.9 626.417 351.34C627.329 349.756 628.589 348.532 630.197 347.668C631.829 346.804 633.713 346.372 635.849 346.372C637.385 346.372 638.777 346.672 640.025 347.272C641.297 347.848 642.341 348.652 643.157 349.684V346.732H644.885V352.636H643.373C642.725 351.124 641.741 349.96 640.421 349.144C639.125 348.328 637.625 347.92 635.921 347.92C633.281 347.92 631.181 348.712 629.621 350.296C628.085 351.856 627.317 353.98 627.317 356.668C627.317 358.516 627.665 360.136 628.361 361.528C629.081 362.896 630.089 363.952 631.385 364.696C632.681 365.416 634.205 365.776 635.957 365.776C638.045 365.752 639.857 365.164 641.393 364.012C642.929 362.836 643.709 361 643.733 358.504H639.341V357.028H645.785Z" fill="white"/>
<line x1="663" y1="366" x2="718" y2="366" stroke="white" stroke-opacity="0.62" stroke-width="2"/>
<defs>
<filter id="filter0_f" x="530.947" y="377.767" width="77.8515" height="77.8515" filterUnits="userSpaceOnUse" color-interpolation-filters="sRGB">
<feFlood flood-opacity="0" result="BackgroundImageFix"/>
<feBlend mode="normal" in="SourceGraphic" in2="BackgroundImageFix" result="shape"/>
<feGaussianBlur stdDeviation="12.5" result="effect1_foregroundBlur"/>
</filter>
<filter id="filter1_f" x="484" y="330" width="170.927" height="172.565" filterUnits="userSpaceOnUse" color-interpolation-filters="sRGB">
<feFlood flood-opacity="0" result="BackgroundImageFix"/>
<feBlend mode="normal" in="SourceGraphic" in2="BackgroundImageFix" result="shape"/>
<feGaussianBlur stdDeviation="20" result="effect1_foregroundBlur"/>
</filter>
<filter id="filter2_f" x="856.302" y="356.612" width="10.0958" height="10.0958" filterUnits="userSpaceOnUse" color-interpolation-filters="sRGB">
<feFlood flood-opacity="0" result="BackgroundImageFix"/>
<feBlend mode="normal" in="SourceGraphic" in2="BackgroundImageFix" result="shape"/>
<feGaussianBlur stdDeviation="1.5" result="effect1_foregroundBlur"/>
</filter>
<filter id="filter3_f" x="842.748" y="343.059" width="37.2024" height="37.2024" filterUnits="userSpaceOnUse" color-interpolation-filters="sRGB">
<feFlood flood-opacity="0" result="BackgroundImageFix"/>
<feBlend mode="normal" in="SourceGraphic" in2="BackgroundImageFix" result="shape"/>
<feGaussianBlur stdDeviation="5" result="effect1_foregroundBlur"/>
</filter>
<filter id="filter4_f" x="206.5" y="281.5" width="8" height="8" filterUnits="userSpaceOnUse" color-interpolation-filters="sRGB">
<feFlood flood-opacity="0" result="BackgroundImageFix"/>
<feBlend mode="normal" in="SourceGraphic" in2="BackgroundImageFix" result="shape"/>
<feGaussianBlur stdDeviation="0.25" result="effect1_foregroundBlur"/>
</filter>
<filter id="filter5_f" x="447.5" y="594.5" width="8" height="8" filterUnits="userSpaceOnUse" color-interpolation-filters="sRGB">
<feFlood flood-opacity="0" result="BackgroundImageFix"/>
<feBlend mode="normal" in="SourceGraphic" in2="BackgroundImageFix" result="shape"/>
<feGaussianBlur stdDeviation="0.25" result="effect1_foregroundBlur"/>
</filter>
<filter id="filter6_f" x="593.5" y="352.5" width="10" height="10" filterUnits="userSpaceOnUse" color-interpolation-filters="sRGB">
<feFlood flood-opacity="0" result="BackgroundImageFix"/>
<feBlend mode="normal" in="SourceGraphic" in2="BackgroundImageFix" result="shape"/>
<feGaussianBlur stdDeviation="0.25" result="effect1_foregroundBlur"/>
</filter>
<filter id="filter7_f" x="411.5" y="187.5" width="7" height="7" filterUnits="userSpaceOnUse" color-interpolation-filters="sRGB">
<feFlood flood-opacity="0" result="BackgroundImageFix"/>
<feBlend mode="normal" in="SourceGraphic" in2="BackgroundImageFix" result="shape"/>
<feGaussianBlur stdDeviation="0.25" result="effect1_foregroundBlur"/>
</filter>
<filter id="filter8_f" x="593.5" y="313.5" width="9" height="9" filterUnits="userSpaceOnUse" color-interpolation-filters="sRGB">
<feFlood flood-opacity="0" result="BackgroundImageFix"/>
<feBlend mode="normal" in="SourceGraphic" in2="BackgroundImageFix" result="shape"/>
<feGaussianBlur stdDeviation="0.25" result="effect1_foregroundBlur"/>
</filter>
<filter id="filter9_f" x="744.5" y="168.5" width="9" height="9" filterUnits="userSpaceOnUse" color-interpolation-filters="sRGB">
<feFlood flood-opacity="0" result="BackgroundImageFix"/>
<feBlend mode="normal" in="SourceGraphic" in2="BackgroundImageFix" result="shape"/>
<feGaussianBlur stdDeviation="0.25" result="effect1_foregroundBlur"/>
</filter>
</defs>
</svg>
