<svg width="344" height="122" viewBox="0 0 344 122" fill="none" xmlns="http://www.w3.org/2000/svg">
<g clip-path="url(#clip0)">
<path d="M108.455 50.7363H85.0895C85.4255 53.4014 86.4598 55.5107 88.1925 57.0639C89.9253 58.5996 92.047 59.3674 94.5577 59.3674C96.3965 59.3674 98.1027 58.9879 99.6763 58.2289C101.25 57.4699 102.567 56.305 103.628 54.7341L108.455 56.9051C106.934 59.2703 104.936 61.0618 102.461 62.2797C100.003 63.4799 97.3247 64.0801 94.425 64.0801C91.4193 64.0801 88.7495 63.4535 86.4156 62.2002C84.0817 60.947 82.2606 59.1996 80.9522 56.9581C79.6615 54.7165 79.0161 52.1924 79.0161 49.3861C79.0161 46.5972 79.6526 44.082 80.9257 41.8405C82.2163 39.5988 83.9756 37.8514 86.2035 36.5982C88.4312 35.3274 90.8889 34.692 93.5764 34.692C96.5115 34.692 99.0663 35.3451 101.241 36.6512C103.433 37.9396 105.157 39.793 106.413 42.2111C107.668 44.6116 108.349 47.4533 108.455 50.7363ZM93.6825 39.2458C91.6138 39.2458 89.8015 39.943 88.2456 41.3375C86.6897 42.7141 85.6907 44.541 85.2486 46.8179H102.7C102.187 44.541 101.1 42.7141 99.4376 41.3375C97.7755 39.943 95.8572 39.2458 93.6825 39.2458ZM122.75 52.0866V58.3877H128.824V63.2593H111.717V58.3877H117.313V40.3313H111.717V35.4333H121.663V41.7345C122.776 39.2458 124.156 37.516 125.8 36.5453C127.462 35.5569 129.831 35.0627 132.907 35.0627H134.154V40.5961H132.961C129.99 40.5961 127.78 40.9843 126.331 41.7611C124.88 42.5376 123.917 43.7114 123.44 45.2822C122.98 46.8532 122.75 49.1213 122.75 52.0866ZM160.941 45.2558V58.3877H165.609V63.2593H156.114V59.844C153.461 62.4385 150.509 63.7359 147.256 63.7359C145.54 63.7359 143.967 63.3387 142.535 62.5444C141.12 61.7502 139.98 60.6912 139.114 59.3674C138.265 58.0259 137.84 56.5433 137.84 54.9194C137.84 53.172 138.31 51.6188 139.247 50.2597C140.2 48.8829 141.483 47.8239 143.092 47.0826C144.701 46.3413 146.319 45.9706 147.945 45.9706C150.668 45.9706 153.206 46.7649 155.557 48.3535V45.3616C155.557 43.1907 155.097 41.6375 154.178 40.7019C153.259 39.7665 151.747 39.2988 149.642 39.2988C148.158 39.2988 146.911 39.5723 145.904 40.1195C144.912 40.6491 144.091 41.4609 143.437 42.5553L138.185 41.2579C139.37 39.0516 140.97 37.4102 142.985 36.3335C145.002 35.2391 147.397 34.692 150.173 34.692C153.904 34.692 156.626 35.5392 158.342 37.2336C160.074 38.9281 160.941 41.6021 160.941 45.2558ZM147.998 59.5262C150.686 59.5262 153.206 58.4054 155.557 56.1638V52.9072C153.169 51.054 150.783 50.1273 148.397 50.1273C146.946 50.1273 145.691 50.5862 144.629 51.5041C143.587 52.4042 143.066 53.5427 143.066 54.9194C143.066 56.2433 143.525 57.3463 144.444 58.2289C145.364 59.0938 146.549 59.5262 147.998 59.5262ZM182.344 58.3877V63.2593H167.677V58.3877H172.61V28.179H167.677V23.3604H178.1V58.3877H182.344ZM209.899 45.2558V58.3877H214.567V63.2593H205.073V59.844C202.42 62.4385 199.467 63.7359 196.214 63.7359C194.499 63.7359 192.925 63.3387 191.494 62.5444C190.079 61.7502 188.939 60.6912 188.072 59.3674C187.223 58.0259 186.799 56.5433 186.799 54.9194C186.799 53.172 187.267 51.6188 188.204 50.2597C189.159 48.8829 190.441 47.8239 192.051 47.0826C193.66 46.3413 195.277 45.9706 196.904 45.9706C199.626 45.9706 202.163 46.7649 204.515 48.3535V45.3616C204.515 43.1907 204.055 41.6375 203.137 40.7019C202.217 39.7665 200.705 39.2988 198.601 39.2988C197.116 39.2988 195.87 39.5723 194.861 40.1195C193.871 40.6491 193.05 41.4609 192.395 42.5553L187.144 41.2579C188.329 39.0516 189.929 37.4102 191.944 36.3335C193.96 35.2391 196.355 34.692 199.132 34.692C202.862 34.692 205.585 35.5392 207.3 37.2336C209.033 38.9281 209.899 41.6021 209.899 45.2558ZM196.957 59.5262C199.645 59.5262 202.163 58.4054 204.515 56.1638V52.9072C202.128 51.054 199.742 50.1273 197.354 50.1273C195.905 50.1273 194.65 50.5862 193.588 51.5041C192.545 52.4042 192.023 53.5427 192.023 54.9194C192.023 56.2433 192.484 57.3463 193.403 58.2289C194.323 59.0938 195.506 59.5262 196.957 59.5262ZM244.217 44.541V58.3877H248.885V63.2593H238.728V44.8852C238.728 43.1377 238.471 41.8845 237.959 41.1255C237.464 40.3667 236.642 39.9871 235.492 39.9871C233.052 39.9871 230.312 41.1873 227.271 43.5878V58.3877H232.071V63.2593H216.954V58.3877H221.86V40.3313H216.954V35.4333H227.271V38.7958C230.683 36.307 233.892 35.0627 236.898 35.0627C239.391 35.0627 241.23 35.8305 242.415 37.366C243.617 38.9016 244.217 41.2933 244.217 44.541ZM286.095 58.3877V63.2593H275.619V59.182C272.826 62.2179 269.492 63.7359 265.62 63.7359C262.933 63.7359 260.555 63.1093 258.487 61.8561C256.435 60.5852 254.835 58.8643 253.687 56.6933C252.555 54.5223 251.989 52.1218 251.989 49.4919C251.989 46.809 252.59 44.338 253.792 42.0787C255.012 39.8195 256.692 38.028 258.831 36.7042C260.97 35.3627 263.287 34.692 265.78 34.692C267.583 34.692 269.29 35.0538 270.898 35.7775C272.525 36.5012 274.099 37.6396 275.619 39.1929V28.179H270.235V23.3604H281.056V58.3877H286.095ZM266.654 58.8643C268.352 58.8643 269.882 58.4142 271.243 57.5141C272.604 56.6139 273.675 55.4137 274.452 53.9134C275.231 52.413 275.619 50.8069 275.619 49.0947C275.619 47.365 275.231 45.7853 274.452 44.3556C273.675 42.9259 272.595 41.7963 271.217 40.9667C269.838 40.1371 268.282 39.7224 266.549 39.7224C264.869 39.7224 263.366 40.1725 262.04 41.0727C260.732 41.9551 259.697 43.1377 258.937 44.6204C258.177 46.0854 257.796 47.6563 257.796 49.3331C257.796 51.1334 258.186 52.7572 258.964 54.2046C259.742 55.6519 260.803 56.7903 262.146 57.6199C263.491 58.4495 264.993 58.8643 266.654 58.8643ZM299.011 52.0866V58.3877H305.084V63.2593H287.978V58.3877H293.575V40.3313H287.978V35.4333H297.923V41.7345C299.038 39.2458 300.416 37.516 302.062 36.5453C303.723 35.5569 306.092 35.0627 309.169 35.0627H310.415V40.5961H309.222C306.252 40.5961 304.042 40.9843 302.591 41.7611C301.142 42.5376 300.177 43.7114 299.701 45.2822C299.241 46.8532 299.011 49.1213 299.011 52.0866ZM337.202 45.2558V58.3877H341.869V63.2593H332.375V59.844C329.723 62.4385 326.77 63.7359 323.516 63.7359C321.802 63.7359 320.228 63.3387 318.796 62.5444C317.382 61.7502 316.241 60.6912 315.375 59.3674C314.526 58.0259 314.102 56.5433 314.102 54.9194C314.102 53.172 314.57 51.6188 315.507 50.2597C316.462 48.8829 317.744 47.8239 319.353 47.0826C320.962 46.3413 322.579 45.9706 324.207 45.9706C326.929 45.9706 329.466 46.7649 331.818 48.3535V45.3616C331.818 43.1907 331.358 41.6375 330.439 40.7019C329.519 39.7665 328.008 39.2988 325.904 39.2988C324.418 39.2988 323.172 39.5723 322.164 40.1195C321.174 40.6491 320.352 41.4609 319.697 42.5553L314.447 41.2579C315.631 39.0516 317.232 37.4102 319.247 36.3335C321.262 35.2391 323.658 34.692 326.435 34.692C330.164 34.692 332.888 35.5392 334.602 37.2336C336.336 38.9281 337.202 41.6021 337.202 45.2558ZM324.26 59.5262C326.947 59.5262 329.466 58.4054 331.818 56.1638V52.9072C329.431 51.054 327.045 50.1273 324.657 50.1273C323.207 50.1273 321.952 50.5862 320.891 51.5041C319.848 52.4042 319.326 53.5427 319.326 54.9194C319.326 56.2433 319.787 57.3463 320.705 58.2289C321.625 59.0938 322.809 59.5262 324.26 59.5262Z" fill="white"/>
<path d="M130.795 92.4178C130.795 95.0125 130.194 97.4393 128.991 99.6986C127.789 101.958 126.145 103.741 124.058 105.047C121.99 106.353 119.69 107.006 117.163 107.006C113.432 107.006 110.17 105.576 107.376 102.717V113.784H112.813V118.655H96.8472V113.784H101.886V83.2572H97.2186V78.3592H107.376V82.8072C108.755 81.1833 110.276 79.9743 111.938 79.18C113.6 78.3857 115.377 77.9886 117.269 77.9886C119.903 77.9886 122.246 78.6416 124.297 79.9477C126.348 81.2363 127.939 82.9836 129.07 85.19C130.22 87.3963 130.795 89.8055 130.795 92.4178ZM117.083 102.002C118.603 102.002 119.973 101.561 121.194 100.678C122.414 99.7958 123.368 98.5954 124.058 97.0775C124.747 95.5596 125.093 93.9534 125.093 92.259C125.093 90.5468 124.712 88.9759 123.952 87.5463C123.192 86.099 122.148 84.9516 120.822 84.1044C119.497 83.2396 118.002 82.8072 116.34 82.8072C114.607 82.8072 113.052 83.266 111.673 84.1838C110.294 85.084 109.224 86.2843 108.464 87.7845C107.703 89.2849 107.323 90.9352 107.323 92.7356C107.323 95.6301 108.234 97.8983 110.055 99.5398C111.894 101.181 114.236 102.002 117.083 102.002ZM147.397 101.896C149.855 101.896 152.515 100.705 155.379 98.3219V83.2572H150.447V78.3592H160.87V101.314H165.644V106.185H155.379V102.982C152.162 105.435 149.104 106.662 146.203 106.662C143.587 106.662 141.651 105.885 140.395 104.332C139.158 102.779 138.539 100.202 138.539 96.6009V83.2572H134.64V78.3592H144.028V97.7394C144.028 99.1692 144.285 100.219 144.798 100.89C145.329 101.561 146.194 101.896 147.397 101.896ZM175.033 101.684H187.816V95.9391H192.589V106.185H168.64V101.684L186.012 82.913H174.608V88.2347H169.94V78.3592H192.589V83.2572L175.033 101.684ZM202.508 101.684H215.292V95.9391H220.066V106.185H196.116V101.684L213.488 82.913H202.084V88.2347H197.416V78.3592H220.066V83.2572L202.508 101.684ZM237.49 101.314V106.185H222.824V101.314H227.756V71.1049H222.824V66.2863H233.247V101.314H237.49ZM270.748 93.6622H247.382C247.718 96.3273 248.753 98.4366 250.485 99.9898C252.219 101.525 254.34 102.293 256.85 102.293C258.689 102.293 260.395 101.914 261.97 101.155C263.542 100.396 264.86 99.2309 265.921 97.66L270.748 99.831C269.227 102.196 267.229 103.988 264.754 105.206C262.297 106.406 259.618 107.006 256.718 107.006C253.712 107.006 251.043 106.379 248.709 105.126C246.375 103.873 244.553 102.126 243.245 99.884C241.954 97.6423 241.309 95.1183 241.309 92.312C241.309 89.5231 241.945 87.0079 243.219 84.7664C244.509 82.5247 246.269 80.7773 248.497 79.5241C250.724 78.2533 253.182 77.6179 255.869 77.6179C258.804 77.6179 261.36 78.271 263.535 79.5771C265.726 80.8655 267.451 82.7189 268.706 85.137C269.961 87.5375 270.642 90.3792 270.748 93.6622ZM255.976 82.1717C253.907 82.1717 252.094 82.8689 250.538 84.2634C248.982 85.64 247.983 87.4669 247.542 89.7437H264.993C264.48 87.4669 263.393 85.64 261.731 84.2634C260.068 82.8689 258.15 82.1717 255.976 82.1717ZM291.78 79.5507V78.3592H296.553V87.5993H291.78V85.9048C290.188 83.6278 288.013 82.4894 285.255 82.4894C283.806 82.4894 282.621 82.8072 281.701 83.4426C280.782 84.078 280.323 84.8987 280.323 85.9048C280.323 86.805 280.667 87.511 281.357 88.0229C282.064 88.5347 283.637 88.9848 286.077 89.3731L289.763 90.0879C295.263 91.094 298.011 93.7857 298.011 98.163C298.011 100.722 297.013 102.779 295.015 104.332C293.035 105.885 290.4 106.662 287.112 106.662C285.803 106.662 284.513 106.476 283.24 106.106C281.984 105.717 280.933 105.241 280.084 104.676V106.185H275.203V96.6539H280.084V97.607C280.349 98.9485 281.091 100.025 282.311 100.837C283.549 101.649 284.981 102.055 286.607 102.055C288.393 102.055 289.8 101.746 290.825 101.128C291.85 100.493 292.363 99.5574 292.363 98.3219C292.363 97.4217 291.956 96.751 291.143 96.3097C290.329 95.8509 288.694 95.3831 286.236 94.9065L283.398 94.2976C280.587 93.7328 278.528 92.762 277.219 91.3852C275.911 90.0085 275.257 88.2523 275.257 86.1166C275.257 84.3868 275.734 82.913 276.689 81.6951C277.661 80.4597 278.899 79.5329 280.402 78.9152C281.905 78.2974 283.451 77.9886 285.042 77.9886C287.713 77.9886 289.958 78.5092 291.78 79.5507Z" fill="white"/>
<path d="M35.4734 16.8582C39.8333 9.3504 50.6931 9.35039 55.0529 16.8582L80.6765 60.9827C85.0497 68.5135 79.6065 77.9444 70.8868 77.9444H19.6396C10.9198 77.9444 5.47664 68.5135 9.84988 60.9827L35.4734 16.8582Z" fill="#1DA282"/>
<g filter="url(#filter0_d)">
<path d="M64.0313 43.8438C64.0313 46.4384 63.4303 48.8653 62.228 51.1246C61.0256 53.3838 59.3814 55.1665 57.2949 56.4727C55.2263 57.7788 52.9277 58.4319 50.3994 58.4319C46.6687 58.4319 43.4066 57.0021 40.613 54.1428V65.2097H46.0499V70.0812H30.084V65.2097H35.1231V34.6831H30.4554V29.7852H40.613V34.2331C41.9922 32.6093 43.5127 31.4002 45.1747 30.606C46.8367 29.8116 48.6136 29.4146 50.5055 29.4146C53.1399 29.4146 55.4826 30.0676 57.5337 31.3737C59.5846 32.6622 61.1759 34.4095 62.3075 36.6159C63.4567 38.8222 64.0313 41.2315 64.0313 43.8438ZM50.3199 53.428C51.8404 53.428 53.2106 52.9866 54.4307 52.1042C55.6507 51.2217 56.6054 50.0214 57.2949 48.5035C57.9845 46.9856 58.3293 45.3794 58.3293 43.6849C58.3293 41.9728 57.9491 40.4019 57.1889 38.9722C56.4286 37.525 55.3854 36.3776 54.0593 35.5304C52.7333 34.6655 51.2392 34.2331 49.5772 34.2331C47.8445 34.2331 46.2885 34.692 44.9095 35.6098C43.5304 36.51 42.4606 37.7102 41.7004 39.2105C40.9401 40.7108 40.56 42.3611 40.56 44.1615C40.56 47.0561 41.4705 49.3243 43.2917 50.9657C45.1305 52.6072 47.4732 53.428 50.3199 53.428Z" fill="white"/>
</g>
<g filter="url(#filter1_d)">
<path d="M50.3553 46.3148C51.9177 46.3148 53.1843 45.0504 53.1843 43.4907C53.1843 41.931 51.9177 40.6667 50.3553 40.6667C48.7929 40.6667 47.5264 41.931 47.5264 43.4907C47.5264 45.0504 48.7929 46.3148 50.3553 46.3148Z" fill="white"/>
</g>
<g filter="url(#filter2_d)">
<path d="M311.184 96.0185C313.684 96.0185 315.711 90.7081 315.711 84.1574C315.711 77.6067 313.684 72.2963 311.184 72.2963C308.684 72.2963 306.658 77.6067 306.658 84.1574C306.658 90.7081 308.684 96.0185 311.184 96.0185Z" fill="#1DA182"/>
</g>
<g filter="url(#filter3_d)">
<path d="M311.184 106.185C313.059 106.185 314.579 104.668 314.579 102.796C314.579 100.925 313.059 99.4074 311.184 99.4074C309.309 99.4074 307.79 100.925 307.79 102.796C307.79 104.668 309.309 106.185 311.184 106.185Z" fill="#1DA182"/>
</g>
</g>
<defs>
<filter id="filter0_d" x="28.084" y="28.4146" width="41.9474" height="48.6667" filterUnits="userSpaceOnUse" color-interpolation-filters="sRGB">
<feFlood flood-opacity="0" result="BackgroundImageFix"/>
<feColorMatrix in="SourceAlpha" type="matrix" values="0 0 0 0 0 0 0 0 0 0 0 0 0 0 0 0 0 0 127 0"/>
<feOffset dx="2" dy="3"/>
<feGaussianBlur stdDeviation="2"/>
<feColorMatrix type="matrix" values="0 0 0 0 0 0 0 0 0 0 0 0 0 0 0 0 0 0 0.25 0"/>
<feBlend mode="normal" in2="BackgroundImageFix" result="effect1_dropShadow"/>
<feBlend mode="normal" in="SourceGraphic" in2="effect1_dropShadow" result="shape"/>
</filter>
<filter id="filter1_d" x="46.5264" y="38.6667" width="13.6579" height="13.6481" filterUnits="userSpaceOnUse" color-interpolation-filters="sRGB">
<feFlood flood-opacity="0" result="BackgroundImageFix"/>
<feColorMatrix in="SourceAlpha" type="matrix" values="0 0 0 0 0 0 0 0 0 0 0 0 0 0 0 0 0 0 127 0"/>
<feOffset dx="3" dy="2"/>
<feGaussianBlur stdDeviation="2"/>
<feColorMatrix type="matrix" values="0 0 0 0 0 0 0 0 0 0 0 0 0 0 0 0 0 0 0.25 0"/>
<feBlend mode="normal" in2="BackgroundImageFix" result="effect1_dropShadow"/>
<feBlend mode="normal" in="SourceGraphic" in2="effect1_dropShadow" result="shape"/>
</filter>
<filter id="filter2_d" x="303.658" y="68.5463" width="17.0526" height="31.7222" filterUnits="userSpaceOnUse" color-interpolation-filters="sRGB">
<feFlood flood-opacity="0" result="BackgroundImageFix"/>
<feColorMatrix in="SourceAlpha" type="matrix" values="0 0 0 0 0 0 0 0 0 0 0 0 0 0 0 0 0 0 127 0"/>
<feOffset dx="1" dy="0.25"/>
<feGaussianBlur stdDeviation="2"/>
<feColorMatrix type="matrix" values="0 0 0 0 0.0757986 0 0 0 0 0.308333 0 0 0 0 0.196717 0 0 0 0.67 0"/>
<feBlend mode="normal" in2="BackgroundImageFix" result="effect1_dropShadow"/>
<feBlend mode="normal" in="SourceGraphic" in2="effect1_dropShadow" result="shape"/>
</filter>
<filter id="filter3_d" x="304.79" y="95.9074" width="14.7895" height="14.7778" filterUnits="userSpaceOnUse" color-interpolation-filters="sRGB">
<feFlood flood-opacity="0" result="BackgroundImageFix"/>
<feColorMatrix in="SourceAlpha" type="matrix" values="0 0 0 0 0 0 0 0 0 0 0 0 0 0 0 0 0 0 127 0"/>
<feOffset dx="1" dy="0.5"/>
<feGaussianBlur stdDeviation="2"/>
<feColorMatrix type="matrix" values="0 0 0 0 0.0745098 0 0 0 0 0.309804 0 0 0 0 0.196078 0 0 0 0.67 0"/>
<feBlend mode="normal" in2="BackgroundImageFix" result="effect1_dropShadow"/>
<feBlend mode="normal" in="SourceGraphic" in2="effect1_dropShadow" result="shape"/>
</filter>
<clipPath id="clip0">
<rect width="344" height="122" rx="30" fill="white"/>
</clipPath>
</defs>
</svg>
