<svg width="17" height="15" viewBox="0 0 17 15" fill="none" xmlns="http://www.w3.org/2000/svg">
<path d="M16.003 0.938961C14.3857 1.03007 11.171 1.36172 9.18649 2.56757C9.04955 2.65078 8.97193 2.79873 8.97193 2.95341V13.6137C8.97193 13.952 9.34469 14.1659 9.65901 14.0089C11.7008 12.9888 14.6536 12.7104 16.1137 12.6343C16.6122 12.6082 16.9997 12.2115 16.9997 11.736V1.83838C17 1.31953 16.5467 0.908493 16.003 0.938961ZM7.81321 2.56757C5.82899 1.36172 2.61434 1.03037 0.996979 0.938961C0.453333 0.908493 0 1.31953 0 1.83838V11.7363C0 12.2121 0.387517 12.6088 0.886007 12.6346C2.34665 12.7107 5.30099 12.9894 7.34276 14.0101C7.6562 14.1668 8.02778 13.9532 8.02778 13.6157V2.94814C8.02778 2.79316 7.95045 2.65107 7.81321 2.56757Z" fill="#6E4A7E"/>
</svg>
