<svg width="17" height="17" viewBox="0 0 17 17" fill="none" xmlns="http://www.w3.org/2000/svg">
<g clip-path="url(#clip0)">
<path fill-rule="evenodd" clip-rule="evenodd" d="M1.1683 5.68026C-0.389096 7.2377 -0.389096 9.76278 1.1683 11.3202L5.68026 15.8322C7.2377 17.3896 9.76278 17.3896 11.3202 15.8322L15.8322 11.3202C17.3896 9.76278 17.3896 7.2377 15.8322 5.68026L11.3202 1.1683C9.76278 -0.389096 7.2377 -0.389096 5.68026 1.1683L1.1683 5.68026V5.68026ZM10.4742 10.4742C11.5644 9.38404 11.5644 7.61644 10.4742 6.52627C9.38404 5.43605 7.61644 5.43605 6.52627 6.52627C5.43605 7.61644 5.43605 9.38404 6.52627 10.4742C7.61644 11.5644 9.38404 11.5644 10.4742 10.4742Z" fill="#2E65F6"/>
</g>
<defs>
<clipPath id="clip0">
<rect width="17" height="17" fill="white"/>
</clipPath>
</defs>
</svg>
