<svg width="17" height="13" viewBox="0 0 17 13" fill="none" xmlns="http://www.w3.org/2000/svg">
<g clip-path="url(#clip0)">
<path d="M6.85262 6.9309L1.69038 11.8654C1.44141 12.1034 1.03777 12.1034 0.788825 11.8654L0.186706 11.2899C-0.0618391 11.0523 -0.0623172 10.6672 0.185644 10.4291L4.27686 6.5L0.18567 2.57093C-0.0622906 2.33279 -0.0618125 1.94774 0.186733 1.71016L0.788825 1.13463C1.0378 0.896642 1.44144 0.896642 1.69038 1.13463L6.85262 6.06912C7.10159 6.30708 7.10159 6.69292 6.85262 6.9309ZM17 11.5781V10.7656C17 10.4291 16.7146 10.1562 16.3625 10.1562H8.2875C7.93542 10.1562 7.65 10.4291 7.65 10.7656V11.5781C7.65 11.9147 7.93542 12.1875 8.2875 12.1875H16.3625C16.7146 12.1875 17 11.9147 17 11.5781Z" fill="#2A5926"/>
</g>
<defs>
<clipPath id="clip0">
<rect width="17" height="13" fill="white"/>
</clipPath>
</defs>
</svg>
